<svg width="129" height="25" viewBox="0 0 129 25" fill="none" xmlns="http://www.w3.org/2000/svg">
<path d="M14.3192 24.881H11.3148V20.8985H3.64791V24.8699H0.554441L0.3764 18.1842H1.45577C1.93055 17.7467 2.30518 17.0421 2.57966 16.0706C2.85414 15.0991 3.04702 13.8272 3.15829 12.255L3.61452 4.70162H12.9283V18.1842H14.6086L14.3192 24.881ZM4.97209 18.1842H9.66792V7.42706H6.73024L6.46318 11.8879C6.27772 14.5651 5.78069 16.6639 4.97209 18.1842Z" fill="#212121"/>
<path d="M27.4387 14.2574C27.4387 16.4303 26.9231 18.1175 25.8919 19.3189C24.8682 20.5203 23.4439 21.121 21.6189 21.121C19.8014 21.121 18.3734 20.5277 17.3348 19.3411C16.2962 18.1471 15.7695 16.4785 15.7547 14.3352V11.5653C15.7547 9.34043 16.2703 7.60505 17.3014 6.35913C18.3326 5.1058 19.7643 4.47913 21.5967 4.47913C23.3993 4.47913 24.82 5.09467 25.8585 6.32576C26.8971 7.54943 27.4238 9.26998 27.4387 11.4874V14.2574ZM24.156 11.543C24.156 10.082 23.9483 8.99558 23.5329 8.28363C23.1174 7.57167 22.472 7.2157 21.5967 7.2157C20.7287 7.2157 20.087 7.56055 19.6716 8.25025C19.2562 8.93254 19.041 9.97451 19.0262 11.3762V14.2574C19.0262 15.6738 19.2376 16.7195 19.6605 17.3944C20.0833 18.0619 20.7361 18.3956 21.6189 18.3956C22.472 18.3956 23.1063 18.0693 23.5217 17.4166C23.9372 16.7566 24.1486 15.7369 24.156 14.3575V11.543Z" fill="#212121"/>
<path d="M34.0596 4.70162L37.1196 16.4155L40.1686 4.70162H44.4416V20.8985H41.1589V16.5156L41.4594 9.76315L38.2213 20.8985H35.9958L32.7576 9.76315L33.0581 16.5156V20.8985H29.7866V4.70162H34.0596Z" fill="#212121"/>
<path d="M63.3139 15.5033C63.2323 17.3499 62.713 18.7478 61.7561 19.6971C60.7991 20.6464 59.449 21.121 57.7056 21.121C55.8733 21.121 54.4675 20.5203 53.4883 19.3189C52.5165 18.1101 52.0306 16.3895 52.0306 14.1572V11.4318C52.0306 9.20694 52.535 7.49381 53.5439 6.29239C54.5528 5.08355 55.9549 4.47913 57.7502 4.47913C59.5157 4.47913 60.8547 4.97231 61.7672 5.95866C62.6871 6.94501 63.2101 8.3615 63.3362 10.2081H60.0536C60.0239 9.06603 59.8458 8.27992 59.5194 7.84978C59.2004 7.41223 58.6107 7.19345 57.7502 7.19345C56.8748 7.19345 56.2553 7.50122 55.8918 8.11676C55.5283 8.72489 55.3355 9.72978 55.3132 11.1314V14.1906C55.3132 15.7999 55.4913 16.9049 55.8473 17.5056C56.2108 18.1063 56.8303 18.4067 57.7056 18.4067C58.5662 18.4067 59.1596 18.1991 59.4861 17.7837C59.8125 17.361 59.9979 16.6009 60.0424 15.5033H63.3139Z" fill="#212121"/>
<path d="M73.0617 17.5835H68.5995L67.7316 20.8985H64.2709L69.334 4.70162H72.3273L77.4237 20.8985H73.9296L73.0617 17.5835ZM69.3117 14.8581H72.3384L70.825 9.08457L69.3117 14.8581Z" fill="#212121"/>
<path d="M86.8821 4.70162H90.1536V20.8985H86.8821V10.1748L82.1084 20.8985H78.8258V4.70162H82.1084V15.4365L86.8821 4.70162ZM88.3732 0.429901C88.3732 1.41625 88.0171 2.21349 87.305 2.82162C86.6002 3.42974 85.6692 3.73381 84.512 3.73381C83.3473 3.73381 82.4088 3.42974 81.6967 2.82162C80.9919 2.21349 80.6396 1.41625 80.6396 0.429901H82.943C82.943 0.889704 83.0802 1.24939 83.3547 1.50895C83.6366 1.7611 84.0223 1.88718 84.512 1.88718C84.9942 1.88718 85.3725 1.7611 85.647 1.50895C85.9215 1.24939 86.0587 0.889704 86.0587 0.429901H88.3732Z" fill="#212121"/>
<path d="M103.262 7.42706H99.256V20.8985H95.9734V7.42706H92.0342V4.70162H103.262V7.42706Z" fill="#212121"/>
<path d="M116.237 14.2574C116.237 16.4303 115.721 18.1175 114.69 19.3189C113.666 20.5203 112.242 21.121 110.417 21.121C108.599 21.121 107.171 20.5277 106.133 19.3411C105.094 18.1471 104.568 16.4785 104.553 14.3352V11.5653C104.553 9.34043 105.068 7.60505 106.099 6.35913C107.131 5.1058 108.562 4.47913 110.395 4.47913C112.197 4.47913 113.618 5.09467 114.657 6.32576C115.695 7.54943 116.222 9.26998 116.237 11.4874V14.2574ZM112.954 11.543C112.954 10.082 112.746 8.99558 112.331 8.28363C111.915 7.57167 111.27 7.2157 110.395 7.2157C109.527 7.2157 108.885 7.56055 108.47 8.25025C108.054 8.93254 107.839 9.97451 107.824 11.3762V14.2574C107.824 15.6738 108.036 16.7195 108.458 17.3944C108.881 18.0619 109.534 18.3956 110.417 18.3956C111.27 18.3956 111.904 18.0693 112.32 17.4166C112.735 16.7566 112.947 15.7369 112.954 14.3575V11.543Z" fill="#212121"/>
<path d="M118.585 20.8985V4.70162H123.592C125.283 4.70162 126.567 5.07984 127.442 5.83629C128.325 6.58532 128.766 7.68663 128.766 9.1402C128.766 9.96339 128.585 10.6716 128.221 11.2649C127.858 11.8582 127.361 12.2921 126.73 12.5665C127.457 12.7741 128.017 13.1931 128.41 13.8235C128.803 14.4465 129 15.2177 129 16.1374C129 17.7096 128.566 18.8962 127.698 19.6971C126.838 20.4981 125.588 20.8985 123.948 20.8985H118.585ZM121.856 13.8569V18.1842H123.948C124.534 18.1842 124.979 18.0025 125.283 17.6391C125.588 17.2757 125.74 16.7603 125.74 16.0929C125.74 14.6393 125.213 13.894 124.159 13.8569H121.856ZM121.856 11.4763H123.559C124.842 11.4763 125.484 10.8125 125.484 9.48505C125.484 8.75085 125.335 8.2243 125.039 7.9054C124.742 7.58651 124.26 7.42706 123.592 7.42706H121.856V11.4763Z" fill="#212121"/>
</svg>
