<svg width="358" height="117" viewBox="0 0 358 117" fill="none" xmlns="http://www.w3.org/2000/svg">
<rect width="358" height="117" fill="#E5E5E5"/>
<g clip-path="url(#clip0_0_1)">
<rect width="1600" height="10469" transform="translate(-1041 -2546)" fill="white"/>
<rect x="-1041" y="-227" width="1600" height="1386" fill="#F8F8F8"/>
<rect opacity="0.3" x="-0.5" y="-0.5" width="359" height="501" stroke="#333333"/>
<g clip-path="url(#clip1_0_1)">
<rect opacity="0.2" width="358" height="117" fill="#333333"/>
<path opacity="0.4" d="M150.064 15.6098C141.791 15.6098 138.574 25.3659 138 30.2439C140.757 26.0293 147.191 24.1951 150.064 23.8049V32L165 20.2927L150.064 8V15.6098Z" fill="#333333"/>
<path opacity="0.4" d="M36.6049 87.7212C35.1721 89.0192 27.8574 91.8558 25.4443 92.0481C16.3197 92.8173 15 93.5385 15 97.5769C15 99.0673 16.1311 100.942 17.7525 102.144C18.318 102.577 18.3557 103.01 18.0164 105.75C17.8279 107.481 17.6393 109.596 17.6393 110.413C17.6393 111.952 17.677 112 19.3361 112C20.3918 112 21.1082 111.76 21.2213 111.375C21.2967 111.087 21.4852 108.923 21.5984 106.567L21.8623 102.385L24.577 102.577C27.5934 102.817 33.9279 105.221 36.4164 107L38 108.202V97.5769C38 91.7596 37.8869 87 37.6984 87C37.5475 87 37.0574 87.3365 36.6049 87.7212Z" fill="#333333"/>
<path opacity="0.4" d="M351.114 45.0148C350.476 44.376 349.718 43.8693 348.883 43.5236C348.049 43.1779 347.155 43 346.252 43C345.349 43 344.454 43.1779 343.62 43.5236C342.786 43.8693 342.028 44.376 341.389 45.0148L340.064 46.3398L338.739 45.0148C337.449 43.7252 335.7 43.0007 333.877 43.0007C332.053 43.0007 330.304 43.7252 329.014 45.0148C327.724 46.3044 327 48.0535 327 49.8773C327 51.7011 327.724 53.4502 329.014 54.7398L330.339 56.0648L340.064 65.7898L349.789 56.0648L351.114 54.7398C351.753 54.1013 352.26 53.3433 352.605 52.509C352.951 51.6747 353.129 50.7804 353.129 49.8773C353.129 48.9742 352.951 48.0799 352.605 47.2456C352.26 46.4113 351.753 45.6532 351.114 45.0148Z" fill="#333333"/>
<g clip-path="url(#clip2_0_1)">
<rect x="21" y="20" width="46" height="47" fill="white"/>
<path d="M62.0516 56.7292L62.0519 56.7273C62.7501 56.7263 63.4117 56.5477 63.8162 56.0607C64.2382 55.5527 64.2544 54.868 64.0046 54.152C63.7792 53.4336 63.2678 52.6034 62.6037 51.7073C61.9301 50.7985 61.0668 49.7797 60.1018 48.6838C59.5618 48.0553 58.8911 47.3955 58.3098 46.8242C57.7073 46.2323 57.2314 45.7634 57.0193 45.4758L57.0172 45.473C56.7123 45.0655 56.6825 44.8839 56.6911 44.7734C56.7027 44.6233 56.7877 44.4508 57.0357 44.0391L57.0413 44.0312L57.0881 43.9647C57.129 43.9065 57.189 43.821 57.2654 43.7113C57.4183 43.492 57.637 43.1761 57.9013 42.7888C58.4295 42.0147 59.1402 40.9543 59.8692 39.8108C60.5975 38.6684 61.3475 37.4376 61.9524 36.3238C62.5424 35.2375 63.0234 34.2113 63.1865 33.4787C63.3487 32.9469 63.3924 32.3481 63.0563 31.8688C62.7101 31.3751 62.0889 31.1869 61.3502 31.1869H56.8397C56.1727 31.1869 55.6473 31.3689 55.2393 31.6773C54.8388 31.9801 54.5881 32.3772 54.417 32.7489L54.413 32.7576L54.4093 32.7665L54.4093 32.7665L54.4091 32.7671L54.408 32.7696L54.4034 32.7808L54.3841 32.8264C54.3765 32.8444 54.3671 32.8663 54.3561 32.892C54.3423 32.9242 54.3258 32.9623 54.3068 33.0061C54.2382 33.1634 54.1364 33.3931 54.0039 33.6806C53.7387 34.2557 53.3515 35.0608 52.8642 35.9781C51.8882 37.8151 50.5235 40.0778 48.9467 41.8488C48.4288 42.3673 48.0783 42.6814 47.8016 42.8674C47.5579 43.0312 47.3964 43.0787 47.2458 43.0845C47.2329 43.0753 47.2093 43.0544 47.1794 43.0107C47.1095 42.9083 47.0167 42.6866 47.0167 42.2734V33.3028C47.0167 32.7082 46.9286 32.1553 46.6179 31.7485C46.282 31.3085 45.7759 31.1482 45.205 31.1482H38.1119C37.1367 31.1482 36.4823 31.9006 36.4823 32.6983C36.4823 33.1103 36.6406 33.4297 36.8241 33.6987C36.9132 33.8292 37.015 33.9575 37.111 34.078L37.1258 34.0967C37.2199 34.2147 37.3127 34.3311 37.4062 34.46C37.7792 34.9737 38.1865 35.7123 38.2687 37.132V43.7672C38.2687 44.4932 38.1965 44.7982 38.1297 44.9188C38.1174 44.9411 38.1092 44.9491 38.1078 44.9504L38.1077 44.9506C38.1069 44.9513 38.1063 44.9519 38.1032 44.9533C38.0919 44.9584 38.0507 44.9722 37.9414 44.9722C37.8929 44.9722 37.7662 44.9448 37.5471 44.8001C37.3372 44.6615 37.0868 44.4448 36.8025 44.1458C36.2348 43.5489 35.577 42.6724 34.8873 41.5804C33.5097 39.3994 32.04 36.4146 30.937 33.2302L30.9371 33.2302L30.9345 33.2231C30.709 32.6027 30.4567 32.067 30.0563 31.6964C29.6299 31.3016 29.099 31.1482 28.4457 31.1482H23.9352C23.2325 31.1482 22.6922 31.3191 22.3376 31.6937C21.9865 32.0646 21.9123 32.5366 21.9123 32.9192C21.9123 33.2939 22.0233 33.9449 22.2569 34.8019C22.4942 35.6729 22.868 36.7916 23.4168 38.1157C24.5144 40.7638 26.3156 44.242 29.1366 48.212C32.9237 53.6944 38.3612 56.6905 43.3315 56.6905C44.7757 56.6905 45.7236 56.5342 46.3078 56.1417C46.9706 55.6964 47.0613 55.0334 47.0613 54.4448V50.378C47.0613 50.0723 47.0775 49.8537 47.1079 49.6958C47.1382 49.5385 47.1766 49.474 47.1976 49.4481C47.221 49.4192 47.296 49.3435 47.7528 49.3435C48.1978 49.3435 49.2512 49.5556 51.9016 52.1242C52.6586 52.8915 53.2595 53.5509 53.7638 54.1115C53.839 54.1952 53.9125 54.277 53.9842 54.3569C54.3895 54.8086 54.7401 55.1993 55.0597 55.5184C55.4376 55.8956 55.8011 56.2031 56.2043 56.4129C56.6182 56.6283 57.0508 56.7292 57.5508 56.7292H62.0516ZM47.2565 43.091C47.2565 43.091 47.2562 43.0908 47.2556 43.0906L47.2565 43.091ZM33.4832 12.5H52.5152C61.1873 12.5 66.3572 13.5434 69.4021 16.5834C72.4467 19.6232 73.5002 24.793 73.5002 33.4849V52.517C73.5002 61.2098 72.4567 66.3792 69.417 69.4188C66.3774 72.4584 61.208 73.5019 52.5152 73.5019H33.4832C24.7904 73.5019 19.621 72.4584 16.5813 69.4188C13.5417 66.3792 12.4982 61.2098 12.4982 52.517V33.4849C12.4982 24.7921 13.5417 19.6227 16.5813 16.5831C19.621 13.5435 24.7904 12.5 33.4832 12.5Z" fill="#0077FF" stroke="#0251AB"/>
</g>
<rect x="82.5" y="44.5" width="61" height="61" rx="14.5" fill="#E37E36" stroke="#CA631A"/>
<path d="M112.105 49.5256L112.104 49.5256C108.868 49.9099 106.331 51.1221 104.188 53.3248L104.188 53.3253C102.22 55.3534 101.082 57.7336 100.721 60.5653L112.105 49.5256ZM112.105 49.5256C112.433 49.487 113.084 49.4961 113.708 49.5269C114.336 49.5579 115.01 49.6146 115.394 49.6876C119.991 50.5469 123.667 53.7556 125.112 58.16C125.878 60.4935 125.93 63.2235 125.241 65.5767C123.898 70.215 119.892 73.7411 115.13 74.4646C114.064 74.6292 112.22 74.6295 111.176 74.4643L111.175 74.464M112.105 49.5256L111.175 74.464M111.175 74.464C108.188 73.9819 105.318 72.3243 103.43 69.9801C102.718 69.0964 102.359 68.5176 101.832 67.4123M111.175 74.464L101.832 67.4123M101.832 67.4123C100.808 65.2776 100.42 62.9089 100.721 60.5654L101.832 67.4123ZM128.445 77.9488L128.445 77.9488L128.448 77.9556C128.553 78.1913 128.629 78.3896 128.672 78.6217C128.715 78.8467 128.722 79.0812 128.722 79.3813C128.722 79.9841 128.613 80.5253 128.358 81.017C128.104 81.5075 127.72 81.916 127.22 82.2798C125.518 83.531 123.014 84.7593 120.741 85.4834L120.737 85.4845C120.686 85.5005 120.635 85.5165 120.585 85.5322C120.754 85.7068 120.959 85.9176 121.195 86.1586C121.914 86.8926 122.91 87.9015 124.009 89.0081C125.112 90.116 126.136 91.1562 126.897 91.9408C127.277 92.333 127.593 92.6626 127.821 92.9053C127.934 93.0264 128.028 93.128 128.097 93.2058C128.132 93.2445 128.163 93.2798 128.188 93.3101C128.206 93.3319 128.243 93.3763 128.271 93.4236C128.404 93.6455 128.56 94.0596 128.641 94.3848C128.959 95.6396 128.578 96.9003 127.611 97.7903C127.248 98.1271 126.89 98.3768 126.473 98.5289C126.056 98.6808 125.617 98.7213 125.112 98.6991C125.073 98.6976 125.033 98.6964 124.992 98.6952C124.744 98.6878 124.474 98.6798 124.194 98.5923C123.856 98.4869 123.527 98.2807 123.099 97.9279C122.31 97.2789 121.027 95.999 118.509 93.4875C118.326 93.3049 118.136 93.1157 117.94 92.9197C117.94 92.9197 117.94 92.9197 117.94 92.9197L113.154 88.1499L108.278 93.0106L108.278 93.0106L108.241 93.0481L108.227 93.062C105.754 95.5263 104.451 96.8253 103.707 97.5283C102.969 98.2259 102.726 98.3954 102.379 98.521L102.209 98.0508L102.38 98.5206C101.555 98.8215 100.418 98.7757 99.6263 98.4047C98.9319 98.0817 98.2527 97.401 97.9228 96.6932C97.8229 96.4798 97.7493 96.2921 97.7075 96.0529C97.6684 95.8283 97.6609 95.5767 97.6609 95.2421C97.6609 95.2007 97.6606 95.159 97.6604 95.1171C97.6587 94.8496 97.657 94.5737 97.7216 94.2997C97.8019 93.9589 97.9729 93.6462 98.2683 93.2643C98.7949 92.584 99.8301 91.5474 101.82 89.5544C101.982 89.3922 102.151 89.2237 102.326 89.0485L102.326 89.0482C103.445 87.9295 104.455 86.9104 105.183 86.1694C105.418 85.9304 105.622 85.7209 105.792 85.5464C103.924 84.9948 101.456 83.8284 99.6361 82.6234L99.6357 82.6231C99.1866 82.3251 98.8517 82.0755 98.5841 81.7971C98.3089 81.5106 98.1225 81.2123 97.9424 80.8387C97.839 80.6273 97.7623 80.442 97.7174 80.2091C97.675 79.9893 97.665 79.7467 97.6609 79.4291H97.6609V79.4226C97.6609 79.0965 97.6682 78.851 97.7123 78.6226C97.7582 78.3846 97.8392 78.1891 97.9465 77.9574C98.1167 77.5873 98.3881 77.2226 98.6892 76.9181C98.9895 76.6144 99.3474 76.342 99.7097 76.1815L99.7105 76.1811C100.027 76.0418 100.447 75.9626 100.843 75.9325C101.241 75.9024 101.675 75.9172 102.028 76.0039C102.214 76.0476 102.445 76.1491 102.667 76.2619C102.902 76.3808 103.164 76.5319 103.42 76.6969C105.646 78.1241 107.806 78.9749 110.349 79.4257C111.35 79.5989 113.773 79.6726 114.929 79.5531L114.93 79.5529C117.582 79.2877 120.299 78.3619 122.428 77.0097L122.429 77.009C123.606 76.2651 123.953 76.0713 124.536 75.9508L124.539 75.9501C125.212 75.8155 125.868 75.8747 126.522 76.1206C126.917 76.2667 127.308 76.5387 127.635 76.8511C127.964 77.1655 128.26 77.5497 128.445 77.9488Z" fill="white" stroke="#CA631A"/>
<path d="M112.325 56.5451L112.324 56.5452C110.492 56.7961 108.956 57.8718 108.107 59.4948C107.033 61.5509 107.413 64.1591 109.022 65.8216L109.023 65.8228C110.742 67.6095 113.264 68.0326 115.572 66.9017L115.576 66.8997C116.077 66.6603 116.304 66.4869 116.894 65.9056C117.212 65.587 117.391 65.3907 117.529 65.2025C117.665 65.0178 117.771 64.8265 117.928 64.5047L117.929 64.5034C118.35 63.646 118.514 62.9283 118.514 62.0142C118.514 60.7812 118.123 59.6394 117.344 58.6162L117.342 58.6133C116.238 57.1419 114.172 56.2889 112.325 56.5451Z" fill="#E37E36" stroke="#CA631A"/>
<path d="M234.5 141V99H186L267 18L348 99H303V141H234.5Z" fill="#333333"/>
<path d="M220.5 135V93H172L253 12L334 93H289V135H220.5Z" fill="white"/>
<rect x="158" y="26" width="50" height="50" rx="15" fill="white"/>
<path d="M204.085 39.7301L205.021 38.3037L203.463 38.9992C202.611 39.3793 201.719 39.6891 200.785 39.9282C201.798 38.9349 202.541 37.7099 203.012 36.2599L203.417 35.0113L202.284 35.6738C200.665 36.6205 199.004 37.2679 197.3 37.6203C195.594 35.8752 193.467 35 190.952 35C188.478 35 186.353 35.8801 184.604 37.6289C182.855 39.3776 181.975 41.5029 181.975 43.9766C181.975 44.4882 182.003 44.9543 182.062 45.3717C178.9 45.1192 175.926 44.2771 173.137 42.8455C170.157 41.3158 167.628 39.2739 165.547 36.7181L165.089 36.1569L164.726 36.783C163.903 38.2021 163.488 39.7145 163.488 41.3125C163.488 43.8882 164.317 46.0099 165.972 47.6455C165.289 47.4796 164.578 47.2237 163.838 46.8746L163.125 46.5381V47.3268V47.4076C163.125 49.5482 163.842 51.4589 165.263 53.1211C166.173 54.1862 167.223 54.9949 168.41 55.5427C168.099 55.5309 167.649 55.4819 167.051 55.3899L166.242 55.2654L166.501 56.0422C167.098 57.8338 168.161 59.3158 169.678 60.4789C170.834 61.3648 172.113 61.9243 173.506 62.1558C170.748 63.994 167.7 64.9102 164.352 64.9102C163.671 64.9102 163.019 64.8709 162.395 64.7929L162.065 65.7111C166.127 68.2911 170.553 69.5833 175.331 69.5833C178.398 69.5833 181.282 69.097 183.978 68.1205C186.663 67.1476 188.978 65.8413 190.912 64.1967C192.833 62.5642 194.486 60.6844 195.871 58.5588C197.256 56.4341 198.286 54.2096 198.96 51.886C199.632 49.569 199.969 47.255 199.969 44.9453C199.969 44.6131 199.963 44.3284 199.949 44.0952C201.592 42.8815 202.972 41.426 204.085 39.7301ZM213.5 31.625V70.375C213.5 73.444 212.416 76.0551 210.236 78.2356C208.055 80.4162 205.444 81.5 202.375 81.5H195.452H183H163.625C160.556 81.5 157.945 80.4162 155.764 78.2356C153.584 76.0551 152.5 73.444 152.5 70.375V31.625C152.5 28.556 153.584 25.9449 155.764 23.7644C157.945 21.5838 160.556 20.5 163.625 20.5H202.375C205.444 20.5 208.055 21.5838 210.236 23.7644C212.416 25.9449 213.5 28.556 213.5 31.625Z" fill="#74939E" stroke="#52707B"/>
</g>
</g>
<defs>
<clipPath id="clip0_0_1">
<rect width="1600" height="10469" fill="white" transform="translate(-1041 -2546)"/>
</clipPath>
<clipPath id="clip1_0_1">
<rect width="358" height="118" fill="white" transform="translate(0 -1)"/>
</clipPath>
<clipPath id="clip2_0_1">
<rect width="62" height="62" fill="white" transform="translate(12 12)"/>
</clipPath>
</defs>
</svg>
