<svg width="358" height="117" viewBox="0 0 358 117" fill="none" xmlns="http://www.w3.org/2000/svg">
<rect width="358" height="117" fill="#E5E5E5"/>
<g clip-path="url(#clip0_0_1)">
<rect width="1600" height="10469" transform="translate(-1041 -3088)" fill="white"/>
<rect x="-1041" y="-769" width="1600" height="1386" fill="#F8F8F8"/>
<rect opacity="0.3" x="-0.5" y="-0.5" width="359" height="501" stroke="#333333"/>
<g clip-path="url(#clip1_0_1)">
<rect opacity="0.2" width="358" height="118" fill="#333333"/>
<path d="M59.548 84H190.548V89H59.548V84Z" fill="#333333"/>
<path d="M70.548 93H200.548V97H70.548V93Z" fill="#333333"/>
<path d="M63.548 101H194.548V106H63.548V101Z" fill="#333333"/>
<path d="M62.548 12H214.548V77H62.548V12Z" fill="#333333"/>
<path d="M225.548 59H327.548V109H225.548V59Z" fill="#333333"/>
<path d="M225.548 12H327.548V49H225.548V12Z" fill="#F4F4F4"/>
<path d="M225.548 12H259.548V49H225.548V12Z" fill="#333333"/>
<path d="M104 43.6494V41.415L112.123 38.1494V40.5933L106.76 42.5107L106.844 42.3926V42.6772L106.76 42.5537L112.123 44.4766V46.915L104 43.6494Z" fill="white"/>
<path d="M115.147 48V37H117.924V41.415H122.452V37H125.223V48H122.452V43.5796H117.924V48H115.147Z" fill="white"/>
<path d="M127.379 39.1592V37H137.09V39.1592H133.606V48H130.868V39.1592H127.379Z" fill="white"/>
<path d="M139.236 37H142.675L145.592 43.8105H145.727L148.644 37H152.083V48H149.379V41.2432H149.283L146.523 47.9302H144.795L142.035 41.2056H141.94V48H139.236V37Z" fill="white"/>
<path d="M154.605 48V37H157.382V45.8408H162.161V48H154.605Z" fill="white"/>
<path d="M173 43.6494L164.877 46.915V44.4766L170.24 42.5537L170.161 42.6772V42.3926L170.24 42.5107L164.877 40.5933V38.1494L173 41.415V43.6494Z" fill="white"/>
<path d="M252 85.0171V83.0399L259.089 80.1502V82.3127L254.409 84.0095L254.482 83.9049V84.1568L254.409 84.0475L259.089 85.749V87.9068L252 85.0171Z" fill="white"/>
<path d="M270.829 82.6597H268.381C268.348 82.4157 268.281 82.1955 268.18 81.999C268.079 81.8026 267.945 81.6347 267.779 81.4952C267.612 81.3558 267.415 81.2497 267.186 81.1768C266.961 81.1008 266.712 81.0627 266.437 81.0627C265.951 81.0627 265.532 81.1784 265.179 81.4097C264.83 81.641 264.561 81.9753 264.371 82.4125C264.185 82.8498 264.092 83.379 264.092 84C264.092 84.6464 264.187 85.1882 264.376 85.6255C264.569 86.0596 264.838 86.3875 265.184 86.6093C265.533 86.8279 265.946 86.9373 266.423 86.9373C266.69 86.9373 266.933 86.904 267.152 86.8375C267.374 86.7709 267.568 86.6743 267.735 86.5475C267.904 86.4176 268.043 86.2608 268.151 86.077C268.262 85.8901 268.339 85.6793 268.381 85.4449L270.829 85.4591C270.786 85.8901 270.657 86.3146 270.442 86.7329C270.23 87.1511 269.938 87.533 269.566 87.8783C269.194 88.2205 268.74 88.493 268.205 88.6958C267.673 88.8986 267.062 89 266.374 89C265.466 89 264.654 88.8067 263.936 88.4202C263.221 88.0304 262.656 87.4632 262.242 86.7186C261.827 85.974 261.62 85.0678 261.62 84C261.62 82.929 261.831 82.0212 262.252 81.2766C262.673 80.532 263.242 79.9664 263.96 79.5798C264.678 79.1933 265.483 79 266.374 79C266.981 79 267.542 79.0824 268.058 79.2471C268.574 79.4087 269.027 79.6464 269.419 79.9601C269.81 80.2706 270.129 80.6524 270.373 81.1055C270.618 81.5586 270.77 82.0767 270.829 82.6597Z" fill="white"/>
<path d="M278.324 82.0513C278.292 81.7028 278.146 81.4319 277.888 81.2386C277.634 81.0421 277.27 80.9439 276.797 80.9439C276.483 80.9439 276.222 80.9835 276.013 81.0627C275.805 81.142 275.648 81.2513 275.543 81.3907C275.439 81.5269 275.385 81.6838 275.382 81.8612C275.375 82.007 275.405 82.1353 275.47 82.2462C275.539 82.3571 275.636 82.4553 275.764 82.5409C275.894 82.6233 276.051 82.6961 276.234 82.7595C276.417 82.8229 276.622 82.8783 276.851 82.9259L277.712 83.116C278.208 83.2205 278.646 83.3599 279.024 83.5342C279.406 83.7085 279.726 83.916 279.984 84.1568C280.245 84.3977 280.442 84.6749 280.576 84.9886C280.71 85.3023 280.779 85.654 280.782 86.0437C280.779 86.6584 280.619 87.186 280.302 87.6264C279.985 88.0669 279.53 88.4043 278.936 88.6388C278.345 88.8733 277.632 88.9905 276.797 88.9905C275.958 88.9905 275.227 88.8685 274.604 88.6245C273.98 88.3805 273.495 88.0098 273.15 87.5124C272.804 87.0149 272.626 86.3859 272.616 85.6255H274.936C274.956 85.9392 275.042 86.2006 275.196 86.4097C275.349 86.6188 275.56 86.7773 275.827 86.885C276.098 86.9927 276.412 87.0466 276.767 87.0466C277.094 87.0466 277.371 87.0038 277.6 86.9183C277.831 86.8327 278.009 86.7139 278.133 86.5618C278.257 86.4097 278.321 86.2354 278.324 86.039C278.321 85.8552 278.262 85.6984 278.148 85.5684C278.034 85.4354 277.857 85.3213 277.619 85.2262C277.384 85.128 277.084 85.0377 276.718 84.9553L275.671 84.7177C274.803 84.5244 274.119 84.2123 273.62 83.7814C273.12 83.3473 272.872 82.7611 272.875 82.0228C272.872 81.4208 273.039 80.8932 273.375 80.4401C273.711 79.987 274.176 79.6337 274.77 79.3802C275.364 79.1267 276.041 79 276.802 79C277.578 79 278.252 79.1283 278.824 79.385C279.398 79.6385 279.843 79.9949 280.16 80.4544C280.477 80.9138 280.638 81.4461 280.645 82.0513H278.324Z" fill="white"/>
<path d="M288.114 82.0513C288.082 81.7028 287.937 81.4319 287.679 81.2386C287.424 81.0421 287.06 80.9439 286.587 80.9439C286.274 80.9439 286.013 80.9835 285.804 81.0627C285.595 81.142 285.438 81.2513 285.334 81.3907C285.229 81.5269 285.175 81.6838 285.172 81.8612C285.166 82.007 285.195 82.1353 285.26 82.2462C285.329 82.3571 285.427 82.4553 285.554 82.5409C285.685 82.6233 285.841 82.6961 286.024 82.7595C286.207 82.8229 286.412 82.8783 286.641 82.9259L287.502 83.116C287.999 83.2205 288.436 83.3599 288.815 83.5342C289.196 83.7085 289.516 83.916 289.774 84.1568C290.035 84.3977 290.233 84.6749 290.366 84.9886C290.5 85.3023 290.569 85.654 290.572 86.0437C290.569 86.6584 290.409 87.186 290.092 87.6264C289.776 88.0669 289.32 88.4043 288.726 88.6388C288.136 88.8733 287.423 88.9905 286.587 88.9905C285.748 88.9905 285.017 88.8685 284.394 88.6245C283.77 88.3805 283.286 88.0098 282.94 87.5124C282.594 87.0149 282.416 86.3859 282.406 85.6255H284.727C284.746 85.9392 284.833 86.2006 284.986 86.4097C285.14 86.6188 285.35 86.7773 285.618 86.885C285.889 86.9927 286.202 87.0466 286.558 87.0466C286.884 87.0466 287.161 87.0038 287.39 86.9183C287.622 86.8327 287.799 86.7139 287.924 86.5618C288.048 86.4097 288.111 86.2354 288.114 86.039C288.111 85.8552 288.052 85.6984 287.938 85.5684C287.824 85.4354 287.648 85.3213 287.409 85.2262C287.174 85.128 286.874 85.0377 286.509 84.9553L285.461 84.7177C284.593 84.5244 283.909 84.2123 283.41 83.7814C282.91 83.3473 282.662 82.7611 282.666 82.0228C282.662 81.4208 282.829 80.8932 283.165 80.4401C283.501 79.987 283.966 79.6337 284.56 79.3802C285.154 79.1267 285.831 79 286.592 79C287.369 79 288.043 79.1283 288.614 79.385C289.188 79.6385 289.634 79.9949 289.95 80.4544C290.267 80.9138 290.428 81.4461 290.435 82.0513H288.114Z" fill="white"/>
<path d="M300 85.0171L292.911 87.9068V85.749L297.591 84.0475L297.523 84.1568V83.9049L297.591 84.0095L292.911 82.3127V80.1502L300 83.0399V85.0171Z" fill="white"/>
<path d="M251.548 31L237.548 39L237.548 23L251.548 31Z" fill="white"/>
<g filter="url(#filter0_d_0_1)">
<path d="M27.7549 48.0906C28.7303 47.5275 29.9534 47.6308 30.8067 48.3502L36.8976 53.4907C37.8576 53.2151 38.6983 53.0084 39.4351 52.875C40.2399 52.7288 41.308 52.5943 42.6551 52.4757L46.4429 46.4403C46.7519 45.9474 47.2125 45.5679 47.7554 45.359C48.2984 45.15 48.8944 45.1227 49.4542 45.2812L57.1152 47.4714C58.1334 47.7638 58.87 48.6259 58.9982 49.6754L59.9015 57.1474C60.7763 57.6819 61.4998 58.1533 62.0803 58.5613C62.7096 59.0076 63.5373 59.6444 64.5712 60.4851L72.0081 59.5977C73.1242 59.462 74.1954 60.0379 74.6893 61.0312L78.2259 68.1683C78.4542 68.6328 78.5411 69.1542 78.4758 69.6676C78.4105 70.1811 78.1959 70.6641 77.8587 71.0567L73.3708 76.324C73.6584 77.1976 73.8742 77.9621 74.0206 78.6295C74.2346 79.6674 74.3994 80.7148 74.5145 81.7683L80.9715 86.401C81.426 86.726 81.7646 87.188 81.9377 87.7193C82.1107 88.2507 82.1091 88.8234 81.9331 89.3538L79.3197 97.2857C79.1469 97.8067 78.8189 98.2625 78.3798 98.5919C77.9406 98.9213 77.4113 99.1087 76.8627 99.1289L69.6013 99.3931C68.9973 100.356 68.3346 101.281 67.6169 102.162L65.7132 104.473L67.0045 111.69C67.0972 112.22 67.0277 112.765 66.805 113.255C66.5822 113.744 66.2168 114.155 65.7566 114.433L59.5353 118.215C59.0647 118.503 58.5162 118.639 57.9654 118.602C57.4146 118.566 56.8885 118.36 56.4595 118.013L50.0355 112.755C48.9973 112.96 47.9535 113.134 46.9054 113.28C46.0376 113.38 45.1665 113.451 44.2938 113.491L39.5455 119.825C39.2325 120.242 38.805 120.559 38.315 120.737C37.8251 120.915 37.2938 120.948 36.7859 120.83L29.5947 119.147C29.0601 119.023 28.578 118.734 28.2166 118.321C27.8551 117.908 27.6327 117.392 27.5806 116.846L26.8816 109.375C26.1173 108.884 25.3716 108.364 24.6461 107.817C23.7755 107.138 22.9255 106.432 22.0973 105.701L15.1147 107.322C14.5477 107.455 13.9528 107.396 13.4222 107.156C12.8917 106.916 12.4553 106.508 12.1807 105.994L8.73332 99.4869C8.50977 99.0615 8.40677 98.5831 8.43545 98.1034C8.46414 97.6237 8.62342 97.161 8.89607 96.7653L13.399 90.1755C13.0766 88.9505 12.8537 87.9821 12.7293 87.2532C12.5792 86.2705 12.4717 85.2816 12.4072 84.2896L6.41195 80.1423C5.95681 79.8273 5.61329 79.376 5.43081 78.8534C5.24832 78.3308 5.23627 77.7638 5.39638 77.234L7.51452 70.1453C7.66324 69.6488 7.95227 69.2059 8.34682 68.8698C8.74137 68.5337 9.22464 68.3188 9.73847 68.2509L17.5372 67.2164C17.9658 66.3497 18.3797 65.6108 18.776 64.9794C19.2474 64.2251 19.9381 63.3221 20.8471 62.2532L19.5104 54.881C19.4142 54.3406 19.4871 53.7836 19.7193 53.2861C19.9515 52.7887 20.3315 52.375 20.8076 52.1016L27.7549 48.0906ZM37.7028 73.3966C32.1722 76.5897 30.2471 83.6067 33.4038 89.0742C36.5605 94.5418 43.6018 96.3865 49.1325 93.1934C54.6598 90.0022 56.5829 82.9819 53.4262 77.5143C50.2695 72.0467 43.2334 70.2035 37.7028 73.3966Z" fill="white"/>
</g>
<g filter="url(#filter1_d_0_1)">
<path d="M96.3095 62.6386C96.9057 62.2944 97.6532 62.3576 98.1748 62.7973L101.898 65.9392C102.484 65.7707 102.998 65.6444 103.449 65.5628C103.94 65.4735 104.593 65.3913 105.417 65.3188L107.732 61.6299C107.921 61.3286 108.202 61.0967 108.534 60.969C108.866 60.8413 109.23 60.8246 109.572 60.9215L114.255 62.2601C114.877 62.4389 115.327 62.9658 115.406 63.6073L115.958 68.1742C116.492 68.5008 116.935 68.789 117.289 69.0384C117.674 69.3111 118.18 69.7003 118.812 70.2142L123.357 69.6718C124.039 69.5889 124.694 69.9409 124.996 70.548L127.158 74.9102C127.297 75.1941 127.35 75.5128 127.31 75.8266C127.27 76.1404 127.139 76.4356 126.933 76.6756L124.19 79.895C124.366 80.4289 124.498 80.8962 124.587 81.3042C124.718 81.9385 124.819 82.5787 124.889 83.2226L128.836 86.0541C129.114 86.2528 129.321 86.5351 129.426 86.8599C129.532 87.1846 129.531 87.5347 129.423 87.8589L127.826 92.7069C127.721 93.0253 127.52 93.3039 127.252 93.5052C126.983 93.7066 126.66 93.8211 126.324 93.8335L121.886 93.995C121.517 94.5835 121.112 95.1487 120.673 95.6875L119.51 97.1001L120.299 101.511C120.356 101.835 120.313 102.168 120.177 102.467C120.041 102.766 119.818 103.017 119.536 103.187L115.734 105.499C115.446 105.675 115.111 105.758 114.774 105.736C114.438 105.714 114.116 105.588 113.854 105.376L109.927 102.162C109.293 102.287 108.655 102.394 108.014 102.482C107.484 102.544 106.952 102.587 106.418 102.612L103.516 106.483C103.325 106.738 103.063 106.931 102.764 107.04C102.464 107.15 102.14 107.169 101.829 107.097L97.434 106.068C97.1073 105.993 96.8126 105.816 96.5917 105.564C96.3708 105.311 96.2348 104.996 96.203 104.662L95.7758 100.096C95.3086 99.7958 94.8528 99.4782 94.4094 99.1438C93.8773 98.7284 93.3578 98.2971 92.8516 97.8505L88.5837 98.841C88.2372 98.9221 87.8736 98.8866 87.5493 98.7399C87.225 98.5932 86.9583 98.3435 86.7905 98.0297L84.6834 94.0523C84.5468 93.7923 84.4838 93.4999 84.5014 93.2067C84.5189 92.9135 84.6162 92.6307 84.7829 92.3888L87.5351 88.3611C87.338 87.6124 87.2018 87.0205 87.1258 86.575C87.034 85.9743 86.9684 85.37 86.9289 84.7636L83.2646 82.2288C82.9864 82.0362 82.7764 81.7604 82.6649 81.441C82.5534 81.1216 82.546 80.775 82.6439 80.4512L83.9385 76.1186C84.0294 75.8151 84.206 75.5444 84.4472 75.339C84.6883 75.1335 84.9837 75.0022 85.2978 74.9607L90.0644 74.3284C90.3264 73.7986 90.5793 73.347 90.8216 72.9611C91.1097 72.5001 91.5318 71.9482 92.0874 71.2948L91.2704 66.7889C91.2116 66.4586 91.2562 66.1182 91.3981 65.8141C91.54 65.5101 91.7723 65.2573 92.0633 65.0902L96.3095 62.6386ZM102.39 78.1057C99.0094 80.0574 97.8327 84.3462 99.7621 87.688C101.692 91.0298 105.995 92.1573 109.376 90.2056C112.754 88.2552 113.929 83.9643 112 80.6225C110.071 77.2807 105.77 76.1541 102.39 78.1057Z" fill="white"/>
</g>
</g>
</g>
<defs>
<filter id="filter0_d_0_1" x="0.284546" y="44.1794" width="86.7817" height="85.72" filterUnits="userSpaceOnUse" color-interpolation-filters="sRGB">
<feFlood flood-opacity="0" result="BackgroundImageFix"/>
<feColorMatrix in="SourceAlpha" type="matrix" values="0 0 0 0 0 0 0 0 0 0 0 0 0 0 0 0 0 0 127 0" result="hardAlpha"/>
<feOffset dy="4"/>
<feGaussianBlur stdDeviation="2.5"/>
<feComposite in2="hardAlpha" operator="out"/>
<feColorMatrix type="matrix" values="0 0 0 0 0 0 0 0 0 0 0 0 0 0 0 0 0 0 0.15 0"/>
<feBlend mode="normal" in2="BackgroundImageFix" result="effect1_dropShadow_0_1"/>
<feBlend mode="normal" in="SourceGraphic" in2="effect1_dropShadow_0_1" result="shape"/>
</filter>
<filter id="filter1_d_0_1" x="77.5755" y="59.8594" width="56.9294" height="56.2803" filterUnits="userSpaceOnUse" color-interpolation-filters="sRGB">
<feFlood flood-opacity="0" result="BackgroundImageFix"/>
<feColorMatrix in="SourceAlpha" type="matrix" values="0 0 0 0 0 0 0 0 0 0 0 0 0 0 0 0 0 0 127 0" result="hardAlpha"/>
<feOffset dy="4"/>
<feGaussianBlur stdDeviation="2.5"/>
<feComposite in2="hardAlpha" operator="out"/>
<feColorMatrix type="matrix" values="0 0 0 0 0 0 0 0 0 0 0 0 0 0 0 0 0 0 0.15 0"/>
<feBlend mode="normal" in2="BackgroundImageFix" result="effect1_dropShadow_0_1"/>
<feBlend mode="normal" in="SourceGraphic" in2="effect1_dropShadow_0_1" result="shape"/>
</filter>
<clipPath id="clip0_0_1">
<rect width="1600" height="10469" fill="white" transform="translate(-1041 -3088)"/>
</clipPath>
<clipPath id="clip1_0_1">
<rect width="358" height="117" fill="white"/>
</clipPath>
</defs>
</svg>
