<svg width="358" height="117" viewBox="0 0 358 117" fill="none" xmlns="http://www.w3.org/2000/svg">
<rect width="358" height="117" fill="#E5E5E5"/>
<g clip-path="url(#clip0_0_1)">
<rect width="1600" height="10469" transform="translate(-201 -3088)" fill="white"/>
<rect x="-201" y="-769" width="1600" height="1386" fill="#F8F8F8"/>
<rect opacity="0.3" x="-0.5" y="-0.5" width="359" height="501" stroke="#333333"/>
<g clip-path="url(#clip1_0_1)">
<rect opacity="0.2" width="358" height="117" fill="#333333"/>
<path d="M129.179 103.727C129.196 106.141 132.435 106.585 134.053 106.505C134.449 105.612 135.212 103.779 135.092 103.585C134.943 103.342 128.994 102.068 129.179 103.727Z" fill="#F1BE89"/>
<path d="M127.664 100.941C127.68 103.355 130.919 103.798 132.537 103.719C132.933 102.826 133.696 100.993 133.577 100.799C133.427 100.556 127.478 99.2822 127.664 100.941Z" fill="#CE9A6A"/>
<path d="M127.769 100.569C127.785 102.983 131.024 103.427 132.642 103.347C133.038 102.455 133.801 100.621 133.682 100.427C133.532 100.184 127.583 98.9107 127.769 100.569Z" fill="#F1BE89"/>
<path d="M128.575 99.1713C128.536 101.921 131.972 102.352 133.695 102.223C134.137 101.198 134.991 99.0922 134.869 98.8737C134.715 98.6006 128.415 97.2864 128.575 99.1713Z" fill="#CE9A6A"/>
<path d="M128.695 98.745C128.656 101.494 132.092 101.925 133.815 101.797C134.257 100.772 135.111 98.6659 134.988 98.4475C134.835 98.1743 128.535 96.8602 128.695 98.745Z" fill="#F1BE89"/>
<rect width="10.6268" height="26.3901" transform="matrix(-0.836322 -0.548239 -0.548239 0.836322 147.074 99.6257)" fill="white"/>
<path d="M151.308 111.554C150.758 114.159 148.091 126.518 146.825 132.372L146.525 133.437L132.887 129.597L134.507 123.843C133.129 121.385 132.685 116.429 133.465 113.659C134.245 110.889 133.66 108.884 132.549 104.661C131.66 101.283 133.059 100.128 133.869 99.9729C131.525 99.3127 129.175 97.0406 131.759 96.8486C136.714 96.404 143.726 100.909 146.229 103.454C148.732 105.999 151.995 108.297 151.308 111.554Z" fill="#FFDAB3"/>
<path d="M141.77 113.133C140.407 112.749 139.817 111.356 139.693 110.708C139.299 108.297 138.919 103.82 140.554 105.2C142.599 106.926 141.806 106.473 142.791 109.51C143.578 111.94 142.439 112.938 141.77 113.133Z" fill="#B69577"/>
<path d="M141.464 112.586C140.1 112.202 139.511 110.81 139.387 110.161C138.993 107.75 138.613 103.273 140.248 104.654C142.292 106.379 141.5 105.926 142.484 108.964C143.272 111.393 142.132 112.391 141.464 112.586Z" fill="#D6AE8A"/>
<rect width="10.6268" height="14.5238" transform="matrix(-0.836322 -0.548239 -0.548239 0.836322 147.074 99.6257)" fill="white"/>
<path d="M139.075 109.259C139.569 111.422 140.994 112.789 141.644 113.202C141.749 116.912 132.691 118.041 133.231 116.123C133.771 114.205 134.192 112.714 133.726 110.283C133.261 107.852 130.526 100.411 133.87 99.9728C137.213 99.5344 138.456 106.555 139.075 109.259Z" fill="#FFDAB3"/>
<path d="M132.969 103.17L136.433 102.305C135.821 101.212 134.995 100.06 133.69 100.612C132.645 101.054 132.774 102.501 132.969 103.17Z" fill="#FFF2E2"/>
<circle r="15.8184" transform="matrix(-0.962559 -0.271072 -0.271072 0.962559 150.319 83.2148)" fill="white" stroke="#333333" stroke-width="6"/>
<path d="M143.515 90.943C143.661 90.9395 143.861 90.8575 143.981 90.751C144.103 90.6406 144.168 90.5659 144.474 90.1884C145.039 89.4865 145.709 88.8953 146.253 88.613C146.411 88.5305 146.541 88.4888 147.413 88.2357C148.807 87.8332 148.986 87.7531 149.588 87.2664C150.571 86.473 150.941 86.2069 151.348 86.002C151.659 85.8462 152.177 85.7112 152.611 85.6765C152.794 85.6597 152.955 85.6539 152.969 85.662C152.983 85.6701 153.022 85.6394 153.061 85.5901C153.117 85.5159 154.372 83.3523 156.083 80.384L156.429 79.7846L156.088 79.5529C155.231 78.9756 154.914 78.7103 154.039 77.8319C153.567 77.3597 153.099 76.9321 152.685 76.5999C152.346 76.327 151.293 75.7192 150.785 75.5032C149.666 75.0299 148.49 74.6307 148.06 74.5798C147.596 74.5247 147.073 74.6068 146.823 74.7715L146.698 74.8539L146.581 75.1777C146.367 75.7738 146.362 75.7869 146.267 75.8463C146.224 75.8747 146.103 75.9356 146.003 75.9792C145.03 76.4216 144.953 76.4996 144.807 77.2467C144.73 77.6339 144.726 77.6368 144.157 77.8835C143.713 78.0747 143.601 78.1486 143.485 78.3163C143.332 78.5448 143.314 78.6544 143.298 79.4362L143.292 79.7099L142.872 80.0029C142.331 80.3754 142.275 80.4258 142.145 80.6516C142.053 80.8114 142.04 80.852 142.023 81.0205C141.985 81.3905 142.055 81.9076 142.184 82.1875C142.374 82.6033 142.722 82.8602 144.606 83.9693L145.92 84.744L146.013 84.883C146.145 85.0844 146.247 85.3377 146.249 85.4692C146.251 85.7557 145.994 85.9614 144.865 86.5671C143.774 87.1575 143.686 87.2318 143.316 87.8815C143.05 88.3462 142.923 88.6507 142.847 89.0039C142.716 89.5998 142.733 90.121 142.892 90.5163L142.953 90.669L143.193 90.8076C143.391 90.922 143.447 90.9461 143.515 90.943Z" fill="#AE6835"/>
<path d="M156.793 88.3434C156.873 88.3338 156.975 88.31 157.022 88.2891L157.106 88.2497L158.888 85.1627C160.65 82.1116 160.67 82.0756 160.669 81.9846C160.669 81.9339 160.652 81.8491 160.628 81.7928C160.593 81.7007 160.572 81.6777 160.393 81.5531C160.285 81.4804 159.692 81.1269 159.074 80.7678L157.953 80.1207L157.83 80.1267C157.685 80.1334 157.588 80.1626 157.505 80.2218C157.458 80.2582 157.129 80.809 155.806 83.0905C154.153 85.9403 153.932 86.3426 153.921 86.5094C153.916 86.5546 153.94 86.6461 153.974 86.7132L154.035 86.8338L155.342 87.5967L156.65 88.3596L156.793 88.3434Z" fill="#AE6835"/>
<path d="M108.558 49.2416C108.763 48.9195 109.237 48.9195 109.442 49.2416L115.43 58.6373C115.502 58.7494 115.614 58.8301 115.743 58.8628L126.606 61.6064C126.978 61.7005 127.124 62.1473 126.879 62.4405L119.718 70.9909C119.632 71.0929 119.589 71.2235 119.598 71.3558L120.323 82.4471C120.348 82.8274 119.965 83.1036 119.608 82.9626L109.193 78.8514C109.069 78.8023 108.931 78.8023 108.807 78.8514L98.3924 82.9626C98.0354 83.1036 97.652 82.8274 97.6769 82.4471L98.402 71.3558C98.4107 71.2235 98.3679 71.0929 98.2824 70.9909L91.121 62.4405C90.8755 62.1473 91.0219 61.7005 91.3943 61.6064L102.257 58.8628C102.386 58.8301 102.498 58.7494 102.57 58.6373L108.558 49.2416Z" fill="white"/>
<path fill-rule="evenodd" clip-rule="evenodd" d="M109 51.4606L103.896 59.4686C103.611 59.917 103.162 60.2398 102.644 60.3708L93.386 62.7091L99.4897 69.9967C99.8315 70.4048 100.003 70.9272 99.9681 71.4565L99.35 80.9097L108.226 77.4056C108.723 77.2094 109.277 77.2094 109.774 77.4056L118.65 80.9097L118.032 71.4565C117.997 70.9272 118.168 70.4048 118.51 69.9967L124.614 62.7091L115.356 60.3708C114.838 60.2398 114.389 59.917 114.104 59.4686L109 51.4606ZM109.442 49.2416C109.237 48.9195 108.763 48.9195 108.558 49.2416L102.57 58.6373C102.498 58.7494 102.386 58.8301 102.257 58.8628L91.3943 61.6064C91.0219 61.7005 90.8755 62.1473 91.121 62.4405L98.2824 70.9909C98.3679 71.0929 98.4107 71.2235 98.402 71.3558L97.6769 82.4471C97.652 82.8274 98.0354 83.1036 98.3924 82.9626L108.807 78.8514C108.931 78.8023 109.069 78.8023 109.193 78.8514L119.608 82.9626C119.965 83.1036 120.348 82.8274 120.323 82.4471L119.598 71.3558C119.589 71.2235 119.632 71.0929 119.718 70.9909L126.879 62.4405C127.124 62.1473 126.978 61.7005 126.606 61.6064L115.743 58.8628C115.614 58.8301 115.502 58.7494 115.43 58.6373L109.442 49.2416Z" fill="#333333"/>
<path d="M247.558 49.2416C247.763 48.9195 248.237 48.9195 248.442 49.2416L254.43 58.6373C254.502 58.7494 254.614 58.8301 254.743 58.8628L265.606 61.6064C265.978 61.7005 266.124 62.1473 265.879 62.4405L258.718 70.9909C258.632 71.0929 258.589 71.2235 258.598 71.3558L259.323 82.4471C259.348 82.8274 258.965 83.1036 258.608 82.9626L248.193 78.8514C248.069 78.8023 247.931 78.8023 247.807 78.8514L237.392 82.9626C237.035 83.1036 236.652 82.8274 236.677 82.4471L237.402 71.3558C237.411 71.2235 237.368 71.0929 237.282 70.9909L230.121 62.4405C229.876 62.1473 230.022 61.7005 230.394 61.6064L241.257 58.8628C241.386 58.8301 241.498 58.7494 241.57 58.6373L247.558 49.2416Z" fill="white"/>
<path fill-rule="evenodd" clip-rule="evenodd" d="M248 51.4606L242.896 59.4686C242.611 59.917 242.162 60.2398 241.644 60.3708L232.386 62.7091L238.49 69.9967C238.832 70.4048 239.003 70.9272 238.968 71.4565L238.35 80.9097L247.226 77.4056C247.723 77.2094 248.277 77.2094 248.774 77.4056L257.65 80.9097L257.032 71.4565C256.997 70.9272 257.168 70.4048 257.51 69.9967L263.614 62.7091L254.356 60.3708C253.838 60.2398 253.389 59.917 253.104 59.4686L248 51.4606ZM248.442 49.2416C248.237 48.9195 247.763 48.9195 247.558 49.2416L241.57 58.6373C241.498 58.7494 241.386 58.8301 241.257 58.8628L230.394 61.6064C230.022 61.7005 229.876 62.1473 230.121 62.4405L237.282 70.9909C237.368 71.0929 237.411 71.2235 237.402 71.3558L236.677 82.4471C236.652 82.8274 237.035 83.1036 237.392 82.9626L247.807 78.8514C247.931 78.8023 248.069 78.8023 248.193 78.8514L258.608 82.9626C258.965 83.1036 259.348 82.8274 259.323 82.4471L258.598 71.3558C258.589 71.2235 258.632 71.0929 258.718 70.9909L265.879 62.4405C266.124 62.1473 265.978 61.7005 265.606 61.6064L254.743 58.8628C254.614 58.8301 254.502 58.7494 254.43 58.6373L248.442 49.2416Z" fill="#333333"/>
<path d="M142.558 27.2487C142.763 26.9171 143.237 26.9171 143.442 27.2487L149.43 36.9207C149.502 37.0361 149.614 37.1192 149.743 37.1529L160.606 39.9772C160.978 40.074 161.124 40.534 160.879 40.8358L153.718 49.6377C153.632 49.7427 153.589 49.8771 153.598 50.0134L154.323 61.4309C154.348 61.8223 153.965 62.1066 153.608 61.9615L143.193 57.7293C143.069 57.6789 142.931 57.6789 142.807 57.7293L132.392 61.9615C132.035 62.1066 131.652 61.8223 131.677 61.4309L132.402 50.0134C132.411 49.8771 132.368 49.7427 132.282 49.6377L125.121 40.8358C124.876 40.534 125.022 40.074 125.394 39.9772L136.257 37.1529C136.386 37.1192 136.498 37.0361 136.57 36.9207L142.558 27.2487Z" fill="white"/>
<path fill-rule="evenodd" clip-rule="evenodd" d="M143 29.533L137.896 37.7765C137.611 38.2381 137.162 38.5704 136.644 38.7052L127.386 41.1124L133.49 48.6143C133.832 49.0343 134.003 49.5721 133.968 50.117L133.35 59.8482L142.226 56.2411C142.723 56.0391 143.277 56.0391 143.774 56.2411L152.65 59.8482L152.032 50.117C151.997 49.5721 152.168 49.0343 152.51 48.6142L158.614 41.1124L149.356 38.7052C148.838 38.5704 148.389 38.2381 148.104 37.7765L143 29.533ZM143.442 27.2487C143.237 26.9171 142.763 26.9171 142.558 27.2487L136.57 36.9207C136.498 37.0361 136.386 37.1192 136.257 37.1529L125.394 39.9772C125.022 40.074 124.876 40.534 125.121 40.8358L132.282 49.6377C132.368 49.7427 132.411 49.8771 132.402 50.0134L131.677 61.4309C131.652 61.8223 132.035 62.1066 132.392 61.9615L142.807 57.7293C142.931 57.6789 143.069 57.6789 143.193 57.7293L153.608 61.9615C153.965 62.1066 154.348 61.8223 154.323 61.4309L153.598 50.0134C153.589 49.8771 153.632 49.7427 153.718 49.6377L160.879 40.8358C161.124 40.534 160.978 40.074 160.606 39.9772L149.743 37.1529C149.614 37.1192 149.502 37.0361 149.43 36.9207L143.442 27.2487Z" fill="#333333"/>
<path d="M211.558 27.2487C211.763 26.9171 212.237 26.9171 212.442 27.2487L218.43 36.9207C218.502 37.0361 218.614 37.1192 218.743 37.1529L229.606 39.9772C229.978 40.074 230.124 40.534 229.879 40.8358L222.718 49.6377C222.632 49.7427 222.589 49.8771 222.598 50.0134L223.323 61.4309C223.348 61.8223 222.965 62.1066 222.608 61.9615L212.193 57.7293C212.069 57.6789 211.931 57.6789 211.807 57.7293L201.392 61.9615C201.035 62.1066 200.652 61.8223 200.677 61.4309L201.402 50.0134C201.411 49.8771 201.368 49.7427 201.282 49.6377L194.121 40.8358C193.876 40.534 194.022 40.074 194.394 39.9772L205.257 37.1529C205.386 37.1192 205.498 37.0361 205.57 36.9207L211.558 27.2487Z" fill="white"/>
<path fill-rule="evenodd" clip-rule="evenodd" d="M212 29.533L206.896 37.7765C206.611 38.2381 206.162 38.5704 205.644 38.7052L196.386 41.1124L202.49 48.6143C202.832 49.0343 203.003 49.5721 202.968 50.117L202.35 59.8482L211.226 56.2411C211.723 56.0391 212.277 56.0391 212.774 56.2411L221.65 59.8482L221.032 50.117C220.997 49.5721 221.168 49.0343 221.51 48.6142L227.614 41.1124L218.356 38.7052C217.838 38.5704 217.389 38.2381 217.104 37.7765L212 29.533ZM212.442 27.2487C212.237 26.9171 211.763 26.9171 211.558 27.2487L205.57 36.9207C205.498 37.0361 205.386 37.1192 205.257 37.1529L194.394 39.9772C194.022 40.074 193.876 40.534 194.121 40.8358L201.282 49.6377C201.368 49.7427 201.411 49.8771 201.402 50.0134L200.677 61.4309C200.652 61.8223 201.035 62.1066 201.392 61.9615L211.807 57.7293C211.931 57.6789 212.069 57.6789 212.193 57.7293L222.608 61.9615C222.965 62.1066 223.348 61.8223 223.323 61.4309L222.598 50.0134C222.589 49.8771 222.632 49.7427 222.718 49.6377L229.879 40.8358C230.124 40.534 229.978 40.074 229.606 39.9772L218.743 37.1529C218.614 37.1192 218.502 37.0361 218.43 36.9207L212.442 27.2487Z" fill="#333333"/>
<path d="M177.558 10.2416C177.763 9.91947 178.237 9.91947 178.442 10.2416L184.43 19.6373C184.502 19.7494 184.614 19.8301 184.743 19.8628L195.606 22.6064C195.978 22.7005 196.124 23.1473 195.879 23.4405L188.718 31.9909C188.632 32.0929 188.589 32.2235 188.598 32.3558L189.323 43.4471C189.348 43.8274 188.965 44.1036 188.608 43.9626L178.193 39.8514C178.069 39.8023 177.931 39.8023 177.807 39.8514L167.392 43.9626C167.035 44.1036 166.652 43.8274 166.677 43.4471L167.402 32.3558C167.411 32.2235 167.368 32.0929 167.282 31.9909L160.121 23.4405C159.876 23.1473 160.022 22.7005 160.394 22.6064L171.257 19.8628C171.386 19.8301 171.498 19.7494 171.57 19.6373L177.558 10.2416Z" fill="white"/>
<path fill-rule="evenodd" clip-rule="evenodd" d="M178 12.4606L172.896 20.4686C172.611 20.917 172.162 21.2398 171.644 21.3708L162.386 23.7091L168.49 30.9967C168.832 31.4048 169.003 31.9272 168.968 32.4565L168.35 41.9097L177.226 38.4056C177.723 38.2094 178.277 38.2094 178.774 38.4056L187.65 41.9097L187.032 32.4565C186.997 31.9272 187.168 31.4048 187.51 30.9967L193.614 23.7091L184.356 21.3708C183.838 21.2398 183.389 20.917 183.104 20.4686L178 12.4606ZM178.442 10.2416C178.237 9.91947 177.763 9.91947 177.558 10.2416L171.57 19.6373C171.498 19.7494 171.386 19.8301 171.257 19.8628L160.394 22.6064C160.022 22.7005 159.876 23.1473 160.121 23.4405L167.282 31.9909C167.368 32.0929 167.411 32.2235 167.402 32.3558L166.677 43.4471C166.652 43.8274 167.035 44.1036 167.392 43.9626L177.807 39.8514C177.931 39.8023 178.069 39.8023 178.193 39.8514L188.608 43.9626C188.965 44.1036 189.348 43.8274 189.323 43.4471L188.598 32.3558C188.589 32.2235 188.632 32.0929 188.718 31.9909L195.879 23.4405C196.124 23.1473 195.978 22.7005 195.606 22.6064L184.743 19.8628C184.614 19.8301 184.502 19.7494 184.43 19.6373L178.442 10.2416Z" fill="#333333"/>
<rect width="19.4921" height="38.9842" transform="matrix(-0.8221 -0.569343 -0.569343 0.8221 312.22 66.6873)" fill="white"/>
<path d="M287.16 58.701C290.625 59.6333 298.76 68.32 302.395 72.5469C303.796 76.9596 299.783 81.9716 294.29 76.9148C292.767 75.5123 283.786 67.8444 281.541 65.7174C279.296 63.5904 282.829 57.5355 287.16 58.701Z" fill="#C1A87F"/>
<path d="M287.16 58.7007C290.625 59.633 298.76 68.3198 302.394 72.5466C303.796 76.9594 296.054 77.9984 294.29 76.9145C292.525 75.8306 283.786 67.8441 281.541 65.7171C279.295 63.5901 282.828 57.5352 287.16 58.7007Z" fill="#E7CDAC"/>
<path d="M292.379 71.9682L297.573 68.8907L300.597 73.5125C298.522 76.0121 296.062 76.4327 295.091 76.3306L292.379 71.9682Z" fill="#FFF2E2"/>
<path d="M308.295 101.126L309.334 108.868L281.637 111.2L281.759 107.35C280.957 106.708 270.869 94.2416 265.925 88.0888L299.832 84.6494L302.741 80.5777L298.18 75.7516C288.892 80.9814 284.982 78.6728 285.064 76.1055C285.146 73.5383 295.658 66.1637 297.944 67.0072C300.23 67.8507 310.938 70.5035 311.278 71.9276C311.619 73.3517 315.324 82.0775 315.161 87.2116C315.031 91.3188 310.529 98.1994 308.295 101.126Z" fill="#DCC4AA"/>
<rect width="19.4921" height="17.4822" transform="matrix(-0.8221 -0.569343 -0.569343 0.8221 300.105 84.3647)" fill="white"/>
<path d="M269.218 80.9796C271.924 83.4279 278.743 89.6282 281.814 92.4224C283.042 93.5399 284.702 93.4882 287.176 91.2301C289.651 88.9719 288.367 85.7806 286.495 84.1838C284.623 82.5871 280.023 77.2661 274.982 73.141C269.941 69.0159 265.835 77.9194 269.218 80.9796Z" fill="#C0A982"/>
<path d="M269.329 80.2163C271.846 82.4646 278.19 88.1583 281.047 90.7241C282.19 91.7502 283.725 91.7124 286.002 89.6666C288.278 87.6207 287.073 84.7027 285.332 83.2357C283.591 81.7688 279.305 76.8897 274.618 73.0988C269.93 69.308 266.181 77.406 269.329 80.2163Z" fill="#E7CDAC"/>
<path d="M277.799 86.4125L281.672 81.7818L286.062 85.1333C284.938 88.1811 282.758 89.3966 281.808 89.6234L277.799 86.4125Z" fill="#FFF2E2"/>
<path d="M274.776 74.0154C277.897 76.6891 285.761 83.4596 289.303 86.5106C290.72 87.7308 292.59 87.7234 295.314 85.3992C298.039 83.075 296.501 79.6538 294.345 77.9069C292.189 76.1601 286.851 70.3856 281.05 65.8668C275.249 61.348 270.874 70.6732 274.776 74.0154Z" fill="#C0A982"/>
<path d="M274.879 73.2094C277.782 75.6657 285.096 81.8852 288.39 84.688C289.708 85.8089 291.438 85.8126 293.946 83.7079C296.454 81.6032 295.012 78.4741 293.007 76.8686C291.002 75.2632 286.031 69.9663 280.639 65.8121C275.246 61.6579 271.251 70.1391 274.879 73.2094Z" fill="#E7CDAC"/>
<path d="M286.187 81.2763L290.06 76.6456L294.45 79.997C293.326 83.0448 291.146 84.2604 290.196 84.4872L286.187 81.2763Z" fill="#FFF2E2"/>
<path d="M266.727 88.2275C268.807 90.0099 274.05 94.5236 276.412 96.5576C277.356 97.3711 278.603 97.3661 280.419 95.8167C282.236 94.2672 281.21 91.9864 279.773 90.8218C278.335 89.6572 274.777 85.8076 270.91 82.7951C267.042 79.7825 264.126 85.9993 266.727 88.2275Z" fill="#C0A982"/>
<path d="M266.796 87.6894C268.731 89.3269 273.607 93.4733 275.804 95.3418C276.682 96.0891 277.835 96.0916 279.507 94.6884C281.179 93.2853 280.218 91.1992 278.881 90.1289C277.545 89.0586 274.231 85.5273 270.636 82.7579C267.041 79.9884 264.377 85.6426 266.796 87.6894Z" fill="#E7CDAC"/>
<path d="M274.08 92.9755L276.662 89.8883L279.589 92.1226C278.839 94.1545 277.385 94.9649 276.753 95.1161L274.08 92.9755Z" fill="#FFF2E2"/>
<path d="M285.064 76.1058C285.146 73.5385 295.659 66.1639 297.945 67.0074L298.181 75.7518C288.892 80.9817 284.983 78.673 285.064 76.1058Z" fill="#DCC4AA"/>
<path d="M290.121 70.6138C290.909 72.7802 291.028 76.8354 285.205 75.7253C285.359 74.9165 286.558 72.7619 290.121 70.6138Z" fill="#FFF2E2"/>
<path d="M311.04 107.768L311.257 113.042L278.766 116.635L278.689 110.98L311.04 107.768Z" fill="#ADADAD"/>
<path d="M277.805 114.548L292.627 171.901L328.981 171.901L311.679 111.899L277.805 114.548Z" fill="#046470"/>
<circle r="31.5173" transform="matrix(-0.938164 -0.34619 -0.34619 0.938164 319.894 35.3322)" fill="white" stroke="#333333" stroke-width="6"/>
<path d="M330.159 15.7294C330.286 16.023 330.306 16.4942 330.204 16.8304C330.097 17.1748 330.008 17.3713 329.538 18.3247C328.661 20.0905 328.1 21.9618 328.038 23.3021C328.018 23.6896 328.055 23.9876 328.35 25.9517C328.826 29.0877 328.832 29.518 328.415 31.158C327.74 33.8386 327.55 34.8167 327.515 35.8118C327.491 36.5732 327.697 37.7264 328.025 38.6196C328.16 38.9988 328.296 39.3235 328.324 39.3439C328.353 39.3643 328.328 39.4701 328.266 39.593C328.17 39.7724 325.021 44.2454 320.691 50.3621L319.817 51.5984L319.044 51.1326C317.113 49.959 316.296 49.5732 313.75 48.6387C312.38 48.1337 311.102 47.5948 310.063 47.0767C309.211 46.6535 307.039 45.1187 306.145 44.3077C304.18 42.5167 302.31 40.5463 301.816 39.7395C301.281 38.8671 300.966 37.7543 301.064 37.107L301.113 36.7834L301.649 36.2535C302.638 35.2838 302.659 35.262 302.69 35.0176C302.707 34.906 302.717 34.6107 302.712 34.3725C302.7 32.0339 302.785 31.8094 304.135 30.8358C304.834 30.3287 304.836 30.3176 304.804 28.9606C304.778 27.9035 304.822 27.6134 305.049 27.2303C305.363 26.7166 305.564 26.5807 307.102 25.8324L307.64 25.5701L307.838 24.4675C308.083 23.0525 308.132 22.8955 308.461 22.4299C308.694 22.1002 308.763 22.0377 309.082 21.8491C309.783 21.4359 310.874 21.1009 311.548 21.1017C312.548 21.0975 313.377 21.5537 317.305 24.281L320.047 26.1821L320.408 26.2399C320.929 26.3175 321.526 26.2881 321.788 26.1708C322.36 25.9136 322.533 25.2138 322.702 22.4167C322.876 19.7094 322.943 19.4661 323.895 18.1367C324.575 17.1836 325.063 16.6509 325.695 16.177C326.759 15.3719 327.81 14.9279 328.741 14.8812L329.1 14.8633L329.595 15.2134C330.004 15.5023 330.103 15.5905 330.159 15.7294Z" fill="#61767E"/>
<path d="M337.153 44.4834C337.208 44.6516 337.254 44.8757 337.255 44.9878L337.254 45.1909L332.753 51.5578C328.305 57.8505 328.253 57.9247 328.071 58.0064C327.971 58.0526 327.786 58.0951 327.653 58.0997C327.438 58.1147 327.372 58.0933 326.961 57.852C326.718 57.705 325.472 56.8491 324.194 55.9516L321.882 54.3176L321.781 54.0668C321.661 53.772 321.63 53.5526 321.673 53.3353C321.701 53.2072 322.495 52.0499 325.816 47.3338C329.963 41.4403 330.559 40.6319 330.881 40.4574C330.966 40.4065 331.17 40.3717 331.334 40.3763L331.63 40.3874L334.342 42.2862L337.055 44.185L337.153 44.4834Z" fill="#61767E"/>
<path d="M67.8783 61.2417C67.1032 63.9248 63.3568 63.403 61.5806 62.8068C61.4191 61.6889 61.1446 59.4083 61.3383 59.2294C61.5806 59.0058 68.605 59.453 67.8783 61.2417Z" fill="#F1BE89"/>
<path d="M70.4401 58.6167C69.665 61.2998 65.9187 60.778 64.1424 60.1818C63.9809 59.0639 63.7064 56.7833 63.9002 56.6044C64.1424 56.3808 71.1668 56.828 70.4401 58.6167Z" fill="#CE9A6A"/>
<path d="M70.4402 58.1694C69.6651 60.8525 65.9187 60.3308 64.1424 59.7345C63.9809 58.6166 63.7064 56.336 63.9002 56.1571C64.1424 55.9335 71.1668 56.3807 70.4402 58.1694Z" fill="#F1BE89"/>
<path d="M69.9809 56.3589C69.1612 59.4325 65.1998 58.8348 63.3215 58.1518C63.1508 56.8712 62.8605 54.2587 63.0654 54.0538C63.3215 53.7976 70.7492 54.3099 69.9809 56.3589Z" fill="#CE9A6A"/>
<path d="M69.9808 55.847C69.1612 58.9205 65.1998 58.3229 63.3215 57.6399C63.1507 56.3592 62.8605 53.7467 63.0654 53.5418C63.3215 53.2857 70.7492 53.7979 69.9808 55.847Z" fill="#F1BE89"/>
<rect x="49.2385" y="51.0637" width="12.2941" height="30.5305" transform="rotate(-17.5182 49.2385 51.0637)" fill="white"/>
<path d="M40.782 63.0187C40.5771 66.0922 39.6721 80.6915 39.2452 87.6069V88.8874H55.6374V81.9719C57.9425 79.6668 59.9915 74.2881 59.9915 70.9584C59.9915 67.6288 61.2722 65.5798 63.8334 61.2256C65.8825 57.7423 64.6872 56.0178 63.8334 55.591C66.6508 55.591 69.9805 53.7979 67.1631 52.7736C61.7844 50.7246 52.5638 53.542 48.978 55.591C45.3923 57.64 41.0381 59.1768 40.782 63.0187Z" fill="#FFDAB3"/>
<path d="M50.908 67.7676C52.5472 67.7676 53.6401 66.4016 53.9816 65.7185C55.1768 63.1573 57.0037 58.2909 54.7498 59.3154C51.9324 60.596 52.9571 60.3399 50.908 63.4134C49.2688 65.8722 50.225 67.3407 50.908 67.7676Z" fill="#B69577"/>
<path d="M51.4202 67.2556C53.0594 67.2556 54.1522 65.8896 54.4937 65.2066C55.6889 62.6453 57.5159 57.7789 55.2619 58.8034C52.4445 60.084 53.4692 59.8279 51.4202 62.9014C49.781 65.3603 50.7372 66.8287 51.4202 67.2556Z" fill="#D6AE8A"/>
<rect x="37.1965" y="87.3506" width="20.4902" height="12.2941" fill="#ADADAD"/>
<path d="M35.6597 95.0342H58.7111L55.1253 147.796H32.0739L35.6597 95.0342Z" fill="black"/>
<rect x="49.2385" y="51.0637" width="12.2941" height="16.8024" transform="rotate(-17.5182 49.2385 51.0637)" fill="white"/>
<path d="M55.1249 64.299C53.8955 66.5529 51.8806 67.6286 51.0269 67.8848C49.7463 71.9828 59.4791 76.0808 59.4791 73.7757C59.4791 71.4706 59.4791 69.6777 60.7597 67.1164C62.0404 64.5551 67.419 57.1274 63.8333 55.5906C60.2475 54.0539 56.6617 61.4816 55.1249 64.299Z" fill="#FFDAB3"/>
<path d="M63.8332 59.433L60.2474 57.3839C61.272 56.3594 62.5526 55.3349 63.8332 56.3594C64.8577 57.179 64.2601 58.7499 63.8332 59.433Z" fill="#FFF2E2"/>
<circle cx="50.7708" cy="31.7708" r="18.7708" fill="white" stroke="#333333" stroke-width="6"/>
<path d="M49.053 17.9581C48.9139 18.1041 48.7993 18.3787 48.7859 18.5998C48.7742 18.827 48.7841 18.9627 48.8539 19.6294C48.9871 20.8657 48.9106 22.0955 48.6547 22.9022C48.582 23.1359 48.4951 23.3042 47.8913 24.4018C46.9248 26.1535 46.8277 26.4069 46.716 27.4683C46.5302 29.2019 46.4291 29.8222 46.2324 30.4186C46.0806 30.8745 45.7067 31.5118 45.3175 31.9686C45.1552 32.1637 45.004 32.3262 44.9824 32.3319C44.9609 32.3377 44.9527 32.4058 44.9626 32.4921C44.9802 32.6192 45.867 35.9536 47.0935 40.5184L47.3406 41.4408L47.8995 41.3339C49.2986 41.0611 49.8662 41.0112 51.5768 41.0142C52.4978 41.0145 53.3718 40.9748 54.0998 40.8951C54.6965 40.8307 56.3164 40.3967 57.0224 40.1119C58.5765 39.4813 60.113 38.7236 60.5818 38.3542C61.0887 37.9547 61.5183 37.3651 61.6013 36.9606L61.6428 36.7583L61.4417 36.3279C61.0683 35.5382 61.0603 35.5205 61.0957 35.3694C61.11 35.2996 61.1682 35.1226 61.2232 34.9826C61.741 33.6016 61.7401 33.4502 61.1535 32.5793C60.8507 32.1266 60.8521 32.1196 61.1669 31.3235C61.4135 30.7038 61.4507 30.5225 61.3998 30.2462C61.3264 29.8737 61.237 29.7494 60.4903 28.9708L60.2291 28.6981L60.353 28.0025C60.517 27.1117 60.5223 27.0081 60.4292 26.6607C60.3633 26.4147 60.3361 26.3627 60.1885 26.1815C59.8642 25.784 59.2917 25.3475 58.8926 25.2007C58.302 24.98 57.7119 25.069 54.7919 25.825L52.7543 26.3512L52.5277 26.3065C52.2026 26.2387 51.8561 26.091 51.7264 25.9643C51.4442 25.6873 51.4948 25.2355 52.0052 23.5434C52.4933 21.9033 52.507 21.7448 52.2339 20.7503C52.0397 20.0379 51.8673 19.6161 51.5967 19.1977C51.1427 18.4889 50.6181 17.9968 50.0776 17.766L49.8689 17.6769L49.4993 17.7759C49.1944 17.8576 49.1168 17.8883 49.053 17.9581Z" fill="#61767E"/>
<path d="M38.6367 33.4456C38.5678 33.5333 38.4917 33.6558 38.4665 33.7219L38.4228 33.8423L39.6956 38.5924C40.9536 43.2872 40.9684 43.3425 41.058 43.4306C41.1075 43.4799 41.2076 43.5454 41.2854 43.5772C41.4093 43.633 41.4526 43.6346 41.7487 43.5816C41.9245 43.5477 42.8486 43.3132 43.8011 43.0613L45.5257 42.5992L45.6404 42.4729C45.7757 42.3246 45.8417 42.2015 45.8642 42.0637C45.8752 41.9816 45.6585 41.1236 44.723 37.6078C43.5559 33.2149 43.3796 32.6064 43.2275 32.433C43.1881 32.3842 43.0748 32.319 42.9769 32.286L42.7996 32.228L40.7799 32.7593L38.7602 33.2906L38.6367 33.4456Z" fill="#61767E"/>
</g>
</g>
<defs>
<clipPath id="clip0_0_1">
<rect width="1600" height="10469" fill="white" transform="translate(-201 -3088)"/>
</clipPath>
<clipPath id="clip1_0_1">
<rect width="358" height="118" fill="white" transform="translate(0 -1)"/>
</clipPath>
</defs>
</svg>
