<svg width="358" height="117" viewBox="0 0 358 117" fill="none" xmlns="http://www.w3.org/2000/svg">
<rect width="358" height="117" fill="#E5E5E5"/>
<g clip-path="url(#clip0_0_1)">
<rect width="1600" height="10469" transform="translate(-621 -3088)" fill="white"/>
<rect x="-621" y="-769" width="1600" height="1386" fill="#F8F8F8"/>
<rect opacity="0.3" x="-0.5" y="-0.5" width="359" height="501" stroke="#333333"/>
<g clip-path="url(#clip1_0_1)">
<rect opacity="0.2" width="358" height="118" fill="#333333"/>
<path d="M117.554 35.0753V15H85.406C56.7852 15 42 37.1099 42 58.813C42 79.2952 55.1575 103.575 85.406 103.575H117.554V83.2289H85.406C69.9426 83.2289 61.9396 68.5793 61.9396 58.813C61.9396 49.0466 71.4347 35.0753 85.406 35.0753H117.554Z" fill="#333333"/>
<path d="M85.406 83.2289C69.9426 83.2289 61.9396 68.5793 61.9396 58.813H42C42 79.2952 55.1575 103.575 85.406 103.575H103.989V83.2289H85.406Z" fill="#3892F2"/>
<path d="M103.989 35.0753V15H85.406C56.7852 15 42 37.1099 42 58.813H61.9396C61.9396 49.0466 71.4347 35.0753 85.406 35.0753H103.989Z" fill="#F24638"/>
<path d="M151.866 40H128.5L144.898 36.6837L134.649 27H172.5L144.898 31.7755L151.866 40Z" fill="#333333"/>
<path d="M152.366 79H129L145.398 82.5714L135.149 93H173L145.398 87.8571L152.366 79Z" fill="#333333"/>
<path d="M274.446 -1.65517C270.864 -1.05969 267.875 1.76887 266.921 5.49066C265.607 10.5523 268.744 15.7841 273.916 17.1452C280.444 18.8466 286.782 13.0406 285.701 6.36262C285.043 2.25802 281.822 -1.03842 277.837 -1.67644C276.268 -1.91038 276.057 -1.91038 274.446 -1.65517Z" fill="white"/>
<path d="M295.772 -9.47256C292.19 -8.87707 289.202 -6.04851 288.248 -2.32672C286.934 2.73491 290.071 7.96668 295.243 9.32779C301.771 11.0292 308.108 5.22319 307.027 -1.45476C306.37 -5.55936 303.149 -8.8558 299.164 -9.49382C297.595 -9.72776 297.383 -9.72776 295.772 -9.47256Z" fill="white"/>
<path d="M251.024 5.19295C247.633 6.46899 245.323 9.29755 244.729 12.913C243.797 18.5063 248.396 23.8657 254.14 23.887C260.478 23.887 265.077 17.9959 263.509 11.8496C262.682 8.59573 260.16 6.00111 256.874 5.00154C255.348 4.53366 252.551 4.64 251.024 5.19295Z" fill="white"/>
<path d="M229.68 12.3388C225.526 13.6786 222.94 17.209 222.94 21.5688C222.94 26.8644 227.116 31.0966 232.372 31.1391C234.577 31.1604 236.505 30.5224 238.265 29.1825C242.97 25.6522 243.394 18.8253 239.176 14.6569C236.717 12.2325 232.923 11.2967 229.68 12.3388Z" fill="white"/>
<path d="M208.379 19.4847C204.564 20.5268 201.851 23.5893 201.278 27.4813C200.346 33.8189 206.09 39.4335 212.342 38.3063C217.874 37.3068 221.457 31.8623 220.079 26.5455C219.401 23.9296 217.684 21.6327 215.479 20.3992C213.423 19.2508 210.604 18.8892 208.379 19.4847Z" fill="white"/>
<path d="M268.511 20.8458C267.578 21.1436 266.307 21.8879 265.628 22.5047C264.971 23.1427 264.145 24.2486 264.293 24.3337C264.335 24.3549 264.802 24.6101 265.332 24.8866C267.345 25.9712 269.232 28.0342 270.058 30.0758C270.249 30.5012 272.135 36.2008 274.255 42.7299L278.091 54.5758L278.134 68.8462L278.155 83.0954L278.685 83.8823C278.982 84.3289 279.596 84.9244 280.063 85.2434C280.783 85.7538 281.122 85.8389 282.436 85.8389C283.772 85.8389 284.047 85.7751 284.874 85.2008C285.446 84.7968 285.976 84.18 286.315 83.4995L286.845 82.4361V65.0607C286.845 55.4903 286.866 47.664 286.888 47.664C286.909 47.664 287.227 48.5997 287.587 49.7269C287.969 50.8753 288.456 52.1301 288.689 52.5129C289.24 53.4061 290.682 54.2356 291.953 54.3844C293.373 54.5546 295.069 53.6826 295.938 52.364C297.104 50.5989 297.061 50.3649 292.738 37.1366C290.639 30.6926 288.753 25.0355 288.52 24.5889C288.011 23.4617 286.4 21.9092 285.107 21.2712C284.09 20.7607 284.047 20.7607 276.565 20.7182C272.432 20.6969 268.808 20.7607 268.511 20.8458Z" fill="white"/>
<path d="M289.838 13.0284C288.905 13.3262 287.633 14.0705 286.955 14.6873C286.298 15.3253 285.471 16.4312 285.62 16.5163C285.662 16.5375 286.128 16.7927 286.658 17.0692C288.672 18.1539 290.558 20.2168 291.385 22.2585C291.576 22.6838 293.462 28.3835 295.582 34.9125L299.418 46.7585L299.461 61.0289L299.482 75.278L300.012 76.0649C300.308 76.5115 300.923 77.107 301.389 77.426C302.11 77.9364 302.449 78.0215 303.763 78.0215C305.099 78.0215 305.374 77.9577 306.201 77.3835C306.773 76.9794 307.303 76.3626 307.642 75.6821L308.172 74.6187V57.2433C308.172 47.673 308.193 39.8466 308.214 39.8466C308.236 39.8466 308.553 40.7823 308.914 41.9095C309.295 43.0579 309.783 44.3127 310.016 44.6955C310.567 45.5888 312.008 46.4182 313.28 46.5671C314.7 46.7372 316.396 45.8652 317.265 44.5467C318.431 42.7815 318.388 42.5475 314.064 29.3192C311.966 22.8752 310.08 17.2181 309.846 16.7715C309.338 15.6443 307.727 14.0918 306.434 13.4538C305.417 12.9434 305.374 12.9434 297.892 12.9008C293.759 12.8796 290.134 12.9434 289.838 13.0284Z" fill="white"/>
<path d="M246.679 27.3747C246.043 27.5449 245.005 28.034 244.39 28.4594C243.33 29.1825 241.995 30.7137 242.037 31.1603C242.037 31.2879 242.631 31.6708 243.352 32.011C244.984 32.7767 247.188 34.9672 247.993 36.6048C248.46 37.5831 251.554 46.8769 255.539 59.3609C256.62 62.7424 256.768 63.8483 256.323 65.5709C256.048 66.7406 256.005 68.4846 256.048 78.225L256.111 89.518L256.747 90.4537C258.358 92.7294 261.601 93.0484 263.487 91.1343C264.886 89.7307 264.802 90.9854 264.908 71.8235L265.014 54.4268L265.713 56.5748C266.095 57.7445 266.667 59.0206 266.985 59.3821C268.892 61.679 272.877 61.1473 274.149 58.4464C274.424 57.8296 274.658 56.9789 274.658 56.5536C274.658 55.6603 267.26 32.6065 266.476 31.0753C265.586 29.3101 264.081 28.034 262.131 27.4386C260.986 27.077 260.16 27.0345 254.352 27.0557C249.35 27.0557 247.57 27.1408 246.679 27.3747Z" fill="white"/>
<path d="M225.59 34.4568C223.682 34.7971 221.584 36.2007 220.587 37.7958C220.333 38.2211 220.164 38.5614 220.206 38.5827C220.248 38.6039 220.821 38.8804 221.478 39.1994C223.301 40.0501 225.335 42.0918 226.226 43.9208C226.628 44.7502 228.684 50.7476 230.804 57.2342C234.979 70.1434 235.17 70.9516 234.513 73.2272C234.216 74.248 234.174 75.8218 234.174 84.8179C234.174 91.1343 234.28 95.5792 234.407 96.1534C234.81 97.9612 236.145 99.2797 237.947 99.6625C239.536 100.003 241.762 98.8969 242.61 97.3657C242.949 96.7489 242.97 95.2389 243.076 79.0332L243.182 61.3813L243.776 63.2954C244.623 65.975 245.153 66.8045 246.467 67.5276C248.778 68.7823 251.279 67.9529 252.508 65.5497C253.229 64.1248 253.059 63.423 248.99 50.9177C246.87 44.3887 244.962 38.689 244.729 38.2424C243.797 36.3709 241.741 34.9034 239.494 34.4781C238.243 34.2441 226.946 34.2229 225.59 34.4568Z" fill="white"/>
<path d="M203.928 41.709C201.808 42.0281 199.752 43.3892 198.714 45.1756C198.417 45.6648 196.403 51.5771 194.22 58.2976C189.875 71.696 189.96 71.377 190.977 73.2485C191.783 74.716 193.796 75.7156 195.237 75.3965C196.234 75.1839 197.421 74.5459 198.035 73.8866C198.332 73.5463 198.883 72.3553 199.328 71.0155C199.752 69.7394 200.091 68.7186 200.112 68.7186C200.134 68.7186 200.155 76.545 200.155 86.1153V103.491L200.664 104.533C201.893 107.042 205.305 107.723 207.404 105.873C209.015 104.448 208.951 105.15 208.951 89.7095V75.9495H210.753H212.554V89.7095C212.554 105.15 212.491 104.448 214.102 105.873C216.2 107.723 219.549 107.085 220.884 104.597L221.351 103.703L221.457 86.3067L221.562 68.91L222.135 70.7815C222.771 72.9083 223.385 73.9078 224.403 74.6097C226.501 76.0346 228.981 75.5454 230.465 73.44C231.037 72.6105 231.101 72.3553 231.079 71.1005C231.058 69.867 230.549 68.1231 227.307 58.1913C225.251 51.8748 223.322 46.2177 223.025 45.601C222.347 44.1973 220.715 42.7086 219.167 42.1131C218.023 41.6665 217.599 41.6452 211.495 41.6027C207.934 41.5814 204.542 41.624 203.928 41.709Z" fill="white"/>
<path d="M273.386 63.9122C272.729 64.1887 271.796 64.3588 270.482 64.4226L268.511 64.5077V75.0988V85.69L268.998 85.8176C271.097 86.3705 273.619 84.9456 274.234 82.8189C274.382 82.2659 274.446 78.9907 274.403 72.7381L274.34 63.4868L273.386 63.9122Z" fill="white"/>
<path d="M294.909 57.4251C294.252 57.7016 293.319 57.8717 292.005 57.9355L290.034 58.0206V68.6118V79.2029L290.522 79.3305C292.62 79.8835 295.142 78.4585 295.757 76.3318C295.905 75.7789 295.969 72.5037 295.927 66.2511L295.863 56.9998L294.909 57.4251Z" fill="white"/>
<path d="M251.872 71.0367C251.406 71.462 249.88 71.7598 248.333 71.7385L246.679 71.7172V81.9043C246.679 89.6244 246.743 92.1339 246.934 92.2402C247.824 92.7932 250.283 92.0914 251.279 91.0067C252.381 89.837 252.402 89.6244 252.402 79.8839C252.402 74.9073 252.317 70.8453 252.233 70.8453C252.148 70.8453 251.978 70.9303 251.872 71.0367Z" fill="white"/>
<path d="M229.511 78.5655C228.769 78.9058 228.154 79.0121 226.819 79.0121H225.06V89.263V99.5138L225.78 99.6415C227.328 99.9392 229.193 99.0034 230.083 97.4722L230.677 96.4726L230.74 87.2638C230.761 82.2235 230.719 78.0763 230.634 78.0976C230.549 78.0976 230.041 78.3103 229.511 78.5655Z" fill="white"/>
</g>
</g>
<defs>
<clipPath id="clip0_0_1">
<rect width="1600" height="10469" fill="white" transform="translate(-621 -3088)"/>
</clipPath>
<clipPath id="clip1_0_1">
<rect width="358" height="117" fill="white"/>
</clipPath>
</defs>
</svg>
