<svg width="38" height="36" viewBox="0 0 38 36" fill="none" xmlns="http://www.w3.org/2000/svg">
<rect width="38" height="36" fill="#E5E5E5"/>
<g clip-path="url(#clip0_0_1)">
<rect width="1600" height="10469" transform="translate(-644 -2937)" fill="white"/>
<rect x="-644" y="-618" width="1600" height="1386" fill="#F8F8F8"/>
<rect opacity="0.3" x="-23.5" y="-391.5" width="359" height="501" stroke="#333333"/>
<g opacity="0.3" clip-path="url(#clip1_0_1)">
<path d="M38 10.8935C38 9.58188 36.9367 8.51848 35.6251 8.51848H31.5709C32.6201 7.48357 33.2916 6.12689 33.2916 4.45604C33.2916 2.39869 32.1101 0.163818 28.7934 0.163818C24.4293 0.163818 20.7837 4.81051 19.0707 7.41529C17.3566 4.8111 13.5993 0.164412 9.23584 0.164412C5.91916 0.164412 4.73759 2.39929 4.73759 4.45663C4.73759 6.12685 5.42753 7.48416 6.49806 8.51907H2.37506C1.06347 8.51907 6.10352e-05 9.58247 6.10352e-05 10.8941V18.003H2.39584V33.4613C2.39584 34.7729 3.45921 35.8363 4.77084 35.8363H33.259C34.5705 35.8363 35.634 34.7729 35.634 33.4613V18.0024H38.0001V10.8935H38Z" fill="#FF5900"/>
<path fill-rule="evenodd" clip-rule="evenodd" d="M28.7934 2.53931C30.2617 2.53931 30.9166 3.15625 30.9166 4.45656C30.9166 7.09459 27.9722 8.51778 25.203 8.51778H21.1827C22.8701 6.01156 25.8401 2.53931 28.7934 2.53931ZM9.23581 2.53934C12.1897 2.53934 15.2718 6.01159 16.9593 8.51722H12.9378C10.1686 8.51722 7.11252 7.05719 7.11252 4.41916C7.11252 3.11944 7.76743 2.53934 9.23581 2.53934ZM35.625 15.6273H20.1875V10.8934H35.625V15.6273ZM2.37503 10.8934H17.8125V15.6273H2.37503V10.8934Z" fill="white"/>
<path d="M4.77081 18.0023H17.8125V33.4606H4.77081V18.0023Z" fill="white"/>
<path d="M33.2595 33.4606H20.1875V18.0023H33.2595V33.4606Z" fill="white"/>
</g>
</g>
<defs>
<clipPath id="clip0_0_1">
<rect width="1600" height="10469" fill="white" transform="translate(-644 -2937)"/>
</clipPath>
<clipPath id="clip1_0_1">
<rect width="38" height="38" fill="white" transform="translate(0 -1)"/>
</clipPath>
</defs>
</svg>
