<svg width="39" height="39" viewBox="0 0 39 39" fill="none" xmlns="http://www.w3.org/2000/svg">
<rect width="39" height="39" fill="#E5E5E5"/>
<g clip-path="url(#clip0_0_1)">
<rect width="1600" height="10469" transform="translate(-224 -2938)" fill="white"/>
<rect x="-224" y="-619" width="1600" height="1386" fill="#F8F8F8"/>
<rect opacity="0.3" x="-23.5" y="-392.5" width="359" height="503" stroke="#333333"/>
<g opacity="0.3" clip-path="url(#clip1_0_1)">
<path d="M15.1448 19.6347C14.1364 19.6347 13.3131 19.3029 12.6748 18.6391C12.0366 17.9754 11.7175 17.0691 11.7175 15.9203C11.7175 15.1672 11.8643 14.5098 12.1579 13.9482C12.4515 13.3865 12.8535 12.9589 13.3641 12.6653C13.8875 12.359 14.481 12.2058 15.1448 12.2058C16.1659 12.2058 16.9956 12.5441 17.6338 13.2206C18.2721 13.8843 18.5912 14.7842 18.5912 15.9203C18.5912 17.0691 18.2721 17.9754 17.6338 18.6391C16.9956 19.3029 16.1659 19.6347 15.1448 19.6347ZM23.0715 12.3781H25.8287L16.6765 25.7809H13.9194L23.0715 12.3781ZM15.1448 17.8158C15.4894 17.8158 15.7638 17.6626 15.9681 17.3563C16.1723 17.0499 16.2744 16.5713 16.2744 15.9203C16.2744 15.2693 16.1723 14.7906 15.9681 14.4843C15.7638 14.1779 15.4894 14.0248 15.1448 14.0248C14.8129 14.0248 14.5385 14.1843 14.3215 14.5034C14.1172 14.8098 14.0151 15.2821 14.0151 15.9203C14.0151 16.5585 14.1172 17.0372 14.3215 17.3563C14.5385 17.6626 14.8129 17.8158 15.1448 17.8158ZM24.6033 25.9532C23.5821 25.9532 22.7524 25.6213 22.1142 24.9575C21.4887 24.2938 21.176 23.3875 21.176 22.2387C21.176 21.1027 21.4951 20.2028 22.1333 19.539C22.7716 18.8625 23.5949 18.5242 24.6033 18.5242C25.6244 18.5242 26.4541 18.8625 27.0923 19.539C27.7306 20.2028 28.0497 21.1027 28.0497 22.2387C28.0497 23.3875 27.7306 24.2938 27.0923 24.9575C26.4541 25.6213 25.6244 25.9532 24.6033 25.9532ZM24.6033 24.1342C24.9479 24.1342 25.2223 23.9811 25.4266 23.6747C25.6308 23.3684 25.7329 22.8897 25.7329 22.2387C25.7329 21.5877 25.6308 21.109 25.4266 20.8027C25.2223 20.4964 24.9479 20.3432 24.6033 20.3432C24.2586 20.3432 23.9842 20.4964 23.7799 20.8027C23.5757 21.109 23.4736 21.5877 23.4736 22.2387C23.4736 22.8897 23.5757 23.3684 23.7799 23.6747C23.9842 23.9811 24.2586 24.1342 24.6033 24.1342Z" fill="#FF5900"/>
<path fill-rule="evenodd" clip-rule="evenodd" d="M24.82 4.42926L19.9232 -0.558594L15.0265 4.42926L8.13316 3.27224L7.10339 10.1857L0.846481 13.3015L4.07703 19.4999L0.846481 25.6983L7.10339 28.8141L8.13316 35.7276L15.0265 34.5705L19.9232 39.5584L24.82 34.5705L31.7133 35.7276L32.7431 28.8141L39 25.6983L35.7694 19.4999L39 13.3015L32.7431 10.1857L31.7133 3.27224L24.82 4.42926ZM29.4184 6.43095L23.8668 7.36275L19.9232 3.34578L15.9796 7.36275L10.4281 6.43095L9.59877 11.9987L4.55976 14.508L7.16149 19.4999L4.55976 24.4918L9.59877 27.0011L10.4281 32.5689L15.9796 31.637L19.9232 35.654L23.8668 31.637L29.4184 32.5689L30.2477 27.0011L35.2867 24.4918L32.685 19.4999L35.2867 14.508L30.2477 11.9987L29.4184 6.43095Z" fill="#FF5900"/>
</g>
</g>
<defs>
<clipPath id="clip0_0_1">
<rect width="1600" height="10469" fill="white" transform="translate(-224 -2938)"/>
</clipPath>
<clipPath id="clip1_0_1">
<rect width="39" height="39" fill="white"/>
</clipPath>
</defs>
</svg>
