<svg width="40" height="40" viewBox="0 0 40 40" fill="none" xmlns="http://www.w3.org/2000/svg">
<path d="M26.5402 29.1741L29.8214 13.7054C29.9554 13.0506 29.8772 12.5818 29.5871 12.2991C29.2969 12.0164 28.9137 11.9643 28.4375 12.1429L9.15179 19.5759C8.72024 19.7396 8.42634 19.9256 8.27009 20.1339C8.11384 20.3423 8.09524 20.5394 8.21429 20.7254C8.33333 20.9115 8.57143 21.0565 8.92857 21.1607L13.8616 22.7009L25.3125 15.4911C25.625 15.2827 25.8631 15.2381 26.0268 15.3571C26.131 15.4315 26.1012 15.5432 25.9375 15.692L16.6741 24.0625L16.317 29.1518C16.6592 29.1518 16.994 28.9881 17.3214 28.6607L19.7321 26.3393L24.7321 30.0223C25.6845 30.558 26.2872 30.2753 26.5402 29.1741ZM40 20C40 22.7083 39.4717 25.2976 38.4152 27.7679C37.3586 30.2381 35.9375 32.3661 34.1518 34.1518C32.3661 35.9375 30.2381 37.3586 27.7679 38.4152C25.2976 39.4717 22.7083 40 20 40C17.2917 40 14.7024 39.4717 12.2321 38.4152C9.7619 37.3586 7.63393 35.9375 5.84821 34.1518C4.0625 32.3661 2.64137 30.2381 1.58482 27.7679C0.528274 25.2976 0 22.7083 0 20C0 17.2917 0.528274 14.7024 1.58482 12.2321C2.64137 9.7619 4.0625 7.63393 5.84821 5.84821C7.63393 4.0625 9.7619 2.64137 12.2321 1.58482C14.7024 0.528274 17.2917 0 20 0C22.7083 0 25.2976 0.528274 27.7679 1.58482C30.2381 2.64137 32.3661 4.0625 34.1518 5.84821C35.9375 7.63393 37.3586 9.7619 38.4152 12.2321C39.4717 14.7024 40 17.2917 40 20Z" fill="white"/>
</svg>
