<svg width="40" height="40" viewBox="0 0 40 40" fill="none" xmlns="http://www.w3.org/2000/svg">
<path d="M26.1387 0H13.86C2.655 0 -0.00125122 2.65625 -0.00125122 13.8612V26.14C-0.00125122 37.345 2.655 40.0013 13.86 40.0013H26.1387C37.3437 40.0013 40 37.345 40 26.14V13.8612C40 2.65625 37.3175 0 26.1387 0ZM32.2912 28.535H29.3875C28.2875 28.535 27.9487 27.6625 25.97 25.6575C24.2512 23.9912 23.49 23.77 23.0662 23.77C22.4675 23.77 22.2975 23.9388 22.2975 24.76V27.3837C22.2975 28.0875 22.0762 28.51 20.2137 28.51C17.1337 28.51 13.7162 26.6475 11.32 23.1775C7.70625 18.0925 6.7175 14.2837 6.7175 13.4963C6.7175 13.0725 6.88625 12.6762 7.7 12.6762H10.61C11.3462 12.6762 11.6262 13.015 11.9125 13.8025C13.3512 17.9562 15.7475 21.595 16.7362 21.595C17.1012 21.595 17.27 21.4263 17.27 20.495V16.205C17.1587 14.2262 16.1175 14.0562 16.1175 13.3537C16.1175 13.015 16.3975 12.6762 16.8462 12.6762H21.4225C22.0412 12.6762 22.2687 13.015 22.2687 13.7437V19.5312C22.2687 20.1562 22.5487 20.3775 22.7175 20.3775C23.0825 20.3775 23.395 20.1562 24.0712 19.4788C26.1612 17.135 27.6587 13.5213 27.6587 13.5213C27.8537 13.0975 28.1925 12.7013 28.9287 12.7013H31.8387C32.7113 12.7013 32.9062 13.15 32.7113 13.775C32.3462 15.4675 28.785 20.4938 28.785 20.4938C28.4787 21.0013 28.3612 21.2225 28.785 21.7887C29.0975 22.2125 30.1137 23.0913 30.79 23.8787C32.0337 25.2913 32.99 26.4762 33.245 27.2962C33.5312 28.11 33.1087 28.5337 32.2875 28.5337L32.2912 28.535Z" fill="white"/>
</svg>
