<svg width="129" height="25" viewBox="0 0 129 25" fill="none" xmlns="http://www.w3.org/2000/svg">
<path d="M14.3192 24.8808H11.3148V20.8983H3.64791V24.8697H0.554441L0.3764 18.184H1.45577C1.93055 17.7465 2.30518 17.0419 2.57966 16.0704C2.85414 15.0989 3.04702 13.827 3.15829 12.2548L3.61452 4.7014H12.9283V18.184H14.6086L14.3192 24.8808ZM4.97209 18.184H9.66792V7.42685H6.73024L6.46318 11.8877C6.27772 14.5649 5.78069 16.6637 4.97209 18.184Z" fill="white"/>
<path d="M27.4387 14.2571C27.4387 16.4301 26.9231 18.1173 25.8919 19.3187C24.8682 20.5201 23.4439 21.1208 21.6189 21.1208C19.8014 21.1208 18.3734 20.5275 17.3348 19.3409C16.2962 18.1469 15.7695 16.4783 15.7547 14.335V11.5651C15.7547 9.34022 16.2703 7.60483 17.3014 6.35892C18.3326 5.10558 19.7643 4.47892 21.5967 4.47892C23.3993 4.47892 24.82 5.09446 25.8585 6.32554C26.8971 7.54921 27.4238 9.26976 27.4387 11.4872V14.2571ZM24.156 11.5428C24.156 10.0818 23.9483 8.99537 23.5329 8.28341C23.1174 7.57146 22.472 7.21549 21.5967 7.21549C20.7287 7.21549 20.087 7.56034 19.6716 8.25004C19.2562 8.93233 19.041 9.9743 19.0262 11.376V14.2571C19.0262 15.6736 19.2376 16.7193 19.6605 17.3942C20.0833 18.0616 20.7361 18.3954 21.6189 18.3954C22.472 18.3954 23.1063 18.0691 23.5217 17.4164C23.9372 16.7564 24.1486 15.7367 24.156 14.3573V11.5428Z" fill="white"/>
<path d="M34.0596 4.7014L37.1196 16.4152L40.1686 4.7014H44.4416V20.8983H41.1589V16.5154L41.4594 9.76294L38.2213 20.8983H35.9958L32.7576 9.76294L33.0581 16.5154V20.8983H29.7866V4.7014H34.0596Z" fill="white"/>
<path d="M63.3139 15.5031C63.2323 17.3497 62.713 18.7476 61.7561 19.6969C60.7991 20.6462 59.449 21.1208 57.7056 21.1208C55.8733 21.1208 54.4675 20.5201 53.4883 19.3187C52.5165 18.1098 52.0306 16.3893 52.0306 14.157V11.4316C52.0306 9.20673 52.535 7.49359 53.5439 6.29217C54.5528 5.08334 55.9549 4.47892 57.7502 4.47892C59.5157 4.47892 60.8547 4.97209 61.7672 5.95844C62.6871 6.94479 63.2101 8.36128 63.3362 10.2079H60.0536C60.0239 9.06582 59.8458 8.27971 59.5194 7.84957C59.2004 7.41201 58.6107 7.19324 57.7502 7.19324C56.8748 7.19324 56.2553 7.50101 55.8918 8.11655C55.5283 8.72468 55.3355 9.72957 55.3132 11.1312V14.1904C55.3132 15.7997 55.4913 16.9047 55.8473 17.5054C56.2108 18.1061 56.8303 18.4065 57.7056 18.4065C58.5662 18.4065 59.1596 18.1988 59.4861 17.7835C59.8125 17.3608 59.9979 16.6007 60.0424 15.5031H63.3139Z" fill="white"/>
<path d="M73.0617 17.5833H68.5995L67.7316 20.8983H64.2709L69.334 4.7014H72.3273L77.4237 20.8983H73.9296L73.0617 17.5833ZM69.3117 14.8579H72.3384L70.825 9.08436L69.3117 14.8579Z" fill="white"/>
<path d="M86.8821 4.7014H90.1536V20.8983H86.8821V10.1745L82.1084 20.8983H78.8258V4.7014H82.1084V15.4363L86.8821 4.7014ZM88.3732 0.429688C88.3732 1.41604 88.0171 2.21328 87.305 2.8214C86.6002 3.42953 85.6692 3.73359 84.512 3.73359C83.3473 3.73359 82.4088 3.42953 81.6967 2.8214C80.9919 2.21328 80.6396 1.41604 80.6396 0.429688H82.943C82.943 0.88949 83.0802 1.24917 83.3547 1.50874C83.6366 1.76089 84.0223 1.88697 84.512 1.88697C84.9942 1.88697 85.3725 1.76089 85.647 1.50874C85.9215 1.24917 86.0587 0.88949 86.0587 0.429688H88.3732Z" fill="white"/>
<path d="M103.262 7.42685H99.256V20.8983H95.9734V7.42685H92.0342V4.7014H103.262V7.42685Z" fill="white"/>
<path d="M116.237 14.2571C116.237 16.4301 115.721 18.1173 114.69 19.3187C113.666 20.5201 112.242 21.1208 110.417 21.1208C108.599 21.1208 107.171 20.5275 106.133 19.3409C105.094 18.1469 104.568 16.4783 104.553 14.335V11.5651C104.553 9.34022 105.068 7.60483 106.099 6.35892C107.131 5.10558 108.562 4.47892 110.395 4.47892C112.197 4.47892 113.618 5.09446 114.657 6.32554C115.695 7.54921 116.222 9.26976 116.237 11.4872V14.2571ZM112.954 11.5428C112.954 10.0818 112.746 8.99537 112.331 8.28341C111.915 7.57146 111.27 7.21549 110.395 7.21549C109.527 7.21549 108.885 7.56034 108.47 8.25004C108.054 8.93233 107.839 9.9743 107.824 11.376V14.2571C107.824 15.6736 108.036 16.7193 108.458 17.3942C108.881 18.0616 109.534 18.3954 110.417 18.3954C111.27 18.3954 111.904 18.0691 112.32 17.4164C112.735 16.7564 112.947 15.7367 112.954 14.3573V11.5428Z" fill="white"/>
<path d="M118.585 20.8983V4.7014H123.592C125.283 4.7014 126.567 5.07963 127.442 5.83608C128.325 6.58511 128.766 7.68641 128.766 9.13998C128.766 9.96318 128.585 10.6714 128.221 11.2647C127.858 11.858 127.361 12.2919 126.73 12.5663C127.457 12.7739 128.017 13.1929 128.41 13.8233C128.803 14.4463 129 15.2175 129 16.1371C129 17.7094 128.566 18.896 127.698 19.6969C126.838 20.4979 125.588 20.8983 123.948 20.8983H118.585ZM121.856 13.8567V18.184H123.948C124.534 18.184 124.979 18.0023 125.283 17.6389C125.588 17.2755 125.74 16.7601 125.74 16.0926C125.74 14.6391 125.213 13.8937 124.159 13.8567H121.856ZM121.856 11.4761H123.559C124.842 11.4761 125.484 10.8123 125.484 9.48483C125.484 8.75063 125.335 8.22408 125.039 7.90519C124.742 7.58629 124.26 7.42685 123.592 7.42685H121.856V11.4761Z" fill="white"/>
</svg>
