<svg width="125" height="9" viewBox="0 0 125 9" fill="none" xmlns="http://www.w3.org/2000/svg">
<g opacity="0.3">
<path d="M6.77755 0.176635L3.70631 5.87301C3.46272 6.32715 3.17634 6.6661 2.84716 6.88987C2.51798 7.11365 2.15918 7.22553 1.77075 7.22553C1.4679 7.22553 1.15847 7.15643 0.842463 7.01821L1.09922 6.22842C1.34281 6.31398 1.56007 6.35676 1.751 6.35676C2.18551 6.35676 2.54431 6.12641 2.82741 5.66569L2.98541 5.41888L0.200565 0.176635H1.25723L3.49893 4.55998L5.79989 0.176635H6.77755Z" fill="white"/>
<path d="M12.1078 3.50364C12.5753 3.61552 12.9275 3.81626 13.1645 4.10585C13.4081 4.38886 13.5299 4.75414 13.5299 5.20169C13.5299 5.80062 13.3093 6.26462 12.8682 6.5937C12.4337 6.92278 11.7984 7.08732 10.9623 7.08732H7.80219V0.176635H10.7747C11.5318 0.176635 12.121 0.331303 12.5424 0.640638C12.9703 0.943392 13.1843 1.38107 13.1843 1.95367C13.1843 2.32882 13.0888 2.64803 12.8979 2.91129C12.7135 3.17456 12.4502 3.372 12.1078 3.50364ZM8.77985 3.21734H10.7055C11.1861 3.21734 11.5515 3.1219 11.8017 2.93104C12.0585 2.74017 12.1868 2.46045 12.1868 2.09188C12.1868 1.72331 12.0585 1.44359 11.8017 1.25273C11.5449 1.05528 11.1796 0.956555 10.7055 0.956555H8.77985V3.21734ZM10.9426 6.3074C12.0025 6.3074 12.5325 5.9125 12.5325 5.12271C12.5325 4.72782 12.3975 4.43822 12.1276 4.25394C11.8643 4.06307 11.4692 3.96764 10.9426 3.96764H8.77985V6.3074H10.9426Z" fill="white"/>
<path d="M20.1964 6.22842V7.08732H15.1798V0.176635H20.0582V1.03553H16.1673V3.1581H19.6336V3.99726H16.1673V6.22842H20.1964Z" fill="white"/>
<path d="M27.396 0.176635V7.08732H26.4282V1.03553H23.3668L23.2977 3.05938C23.2648 4.01371 23.1858 4.78705 23.0607 5.37939C22.9422 5.97174 22.7513 6.41929 22.4879 6.72204C22.2246 7.01821 21.8691 7.1663 21.4214 7.1663C21.2173 7.1663 21.0099 7.13997 20.7992 7.08732L20.8684 6.20868C20.9737 6.235 21.079 6.24817 21.1844 6.24817C21.4675 6.24817 21.6946 6.13628 21.8658 5.9125C22.0369 5.68215 22.1653 5.3399 22.2509 4.88577C22.3365 4.43164 22.3925 3.83272 22.4188 3.089L22.5274 0.176635H27.396Z" fill="white"/>
<path d="M29.5492 0.176635H30.5268V5.50774L34.6152 0.176635H35.5238V7.08732H34.556V1.76609L30.4577 7.08732H29.5492V0.176635Z" fill="white"/>
<path d="M42.6015 0.176635V7.08732H41.6239V4.35266C40.8931 4.63567 40.2183 4.77718 39.5994 4.77718C38.7567 4.77718 38.1017 4.57315 37.6342 4.16509C37.1734 3.75703 36.943 3.17456 36.943 2.41767V0.176635H37.9107V2.30908C37.9107 2.82244 38.0655 3.21734 38.3749 3.49376C38.6909 3.77019 39.1353 3.90841 39.7081 3.90841C40.3467 3.90841 40.9853 3.76361 41.6239 3.47402V0.176635H42.6015Z" fill="white"/>
<path d="M49.7743 6.22842V7.08732H44.7576V0.176635H49.636V1.03553H45.7451V3.1581H49.2114V3.99726H45.7451V6.22842H49.7743Z" fill="white"/>
<path d="M57.2701 0.176635V7.08732H56.2825V4.00713H52.3126V7.08732H51.3251V0.176635H52.3126V3.14823H56.2825V0.176635H57.2701Z" fill="white"/>
<path d="M59.426 0.176635H60.4036V5.50774L64.492 0.176635H65.4005V7.08732H64.4328V1.76609L60.3345 7.08732H59.426V0.176635Z" fill="white"/>
<path d="M72.5724 6.22842V7.08732H67.5558V0.176635H72.4342V1.03553H68.5433V3.1581H72.0095V3.99726H68.5433V6.22842H72.5724Z" fill="white"/>
<path d="M82.7302 0.176635V7.08732H81.7624V1.03553H77.753V7.08732H76.7753V0.176635H82.7302Z" fill="white"/>
<path d="M87.5818 0.176635C88.4772 0.176635 89.1816 0.390537 89.6951 0.818342C90.2087 1.24615 90.4654 1.8352 90.4654 2.5855C90.4654 3.33581 90.2087 3.92486 89.6951 4.35266C89.1816 4.78047 88.4772 4.99437 87.5818 4.99437H85.8734V7.08732H84.8858V0.176635H87.5818ZM87.5522 4.13547C88.1776 4.13547 88.6549 4.00384 88.9841 3.74057C89.3133 3.47073 89.4779 3.0857 89.4779 2.5855C89.4779 2.0853 89.3133 1.70357 88.9841 1.4403C88.6549 1.17046 88.1776 1.03553 87.5522 1.03553H85.8734V4.13547H87.5522Z" fill="white"/>
<path d="M95.0463 7.1663C94.3484 7.1663 93.7197 7.01492 93.1601 6.71217C92.6005 6.40283 92.1594 5.97832 91.8368 5.43863C91.5208 4.89894 91.3628 4.29672 91.3628 3.63198C91.3628 2.96724 91.5208 2.36502 91.8368 1.82533C92.1594 1.28564 92.6005 0.864413 93.1601 0.561659C93.7197 0.252324 94.3484 0.0976562 95.0463 0.0976562C95.7375 0.0976562 96.363 0.252324 96.9226 0.561659C97.4822 0.864413 97.92 1.28564 98.236 1.82533C98.552 2.35844 98.71 2.96065 98.71 3.63198C98.71 4.3033 98.552 4.90881 98.236 5.4485C97.92 5.98161 97.4822 6.40283 96.9226 6.71217C96.363 7.01492 95.7375 7.1663 95.0463 7.1663ZM95.0463 6.28766C95.5532 6.28766 96.0075 6.17248 96.4091 5.94212C96.8172 5.71177 97.1365 5.39585 97.367 4.99437C97.604 4.58631 97.7225 4.13218 97.7225 3.63198C97.7225 3.13178 97.604 2.68094 97.367 2.27946C97.1365 1.8714 96.8172 1.55219 96.4091 1.32183C96.0075 1.09148 95.5532 0.9763 95.0463 0.9763C94.5393 0.9763 94.0785 1.09148 93.6637 1.32183C93.2555 1.55219 92.9329 1.8714 92.6959 2.27946C92.4655 2.68094 92.3503 3.13178 92.3503 3.63198C92.3503 4.13218 92.4655 4.58631 92.6959 4.99437C92.9329 5.39585 93.2555 5.71177 93.6637 5.94212C94.0785 6.17248 94.5393 6.28766 95.0463 6.28766Z" fill="white"/>
<path d="M106.7 6.22842V8.5978H105.782V7.08732H100.094L100.084 8.5978H99.1655L99.1754 6.22842H99.5112C99.9457 6.2021 100.252 5.85985 100.43 5.20169C100.607 4.53695 100.716 3.60236 100.755 2.39793L100.825 0.176635H105.683V6.22842H106.7ZM101.624 2.48678C101.592 3.46086 101.513 4.2671 101.387 4.90552C101.269 5.54393 101.075 5.9849 100.805 6.22842H104.706V1.03553H101.674L101.624 2.48678Z" fill="white"/>
<path d="M112.573 5.35965H108.899L108.139 7.08732H107.122L110.252 0.176635H111.23L114.37 7.08732H113.333L112.573 5.35965ZM112.227 4.56986L110.736 1.18362L109.245 4.56986H112.227Z" fill="white"/>
<path d="M121.042 4.04662H119.728V7.08732H118.761V4.04662H117.437L115.502 7.08732H114.346L116.628 3.49376L114.514 0.176635H115.571L117.418 3.17785H118.761V0.176635H119.728V3.17785H121.052L122.908 0.176635H123.965L121.852 3.51351L124.133 7.08732H122.977L121.042 4.04662Z" fill="white"/>
</g>
</svg>
