<svg width="125" height="9" viewBox="0 0 125 9" fill="none" xmlns="http://www.w3.org/2000/svg">
<g opacity="0.3">
<path d="M6.77755 0.176177L3.70631 5.87256C3.46272 6.32669 3.17634 6.66564 2.84716 6.88942C2.51798 7.11319 2.15918 7.22508 1.77075 7.22508C1.4679 7.22508 1.15847 7.15597 0.842463 7.01776L1.09922 6.22796C1.34281 6.31352 1.56007 6.35631 1.751 6.35631C2.18551 6.35631 2.54431 6.12595 2.82741 5.66524L2.98541 5.41843L0.200565 0.176177H1.25723L3.49893 4.55953L5.79989 0.176177H6.77755Z" fill="#333333"/>
<path d="M12.1078 3.50318C12.5753 3.61507 12.9275 3.8158 13.1645 4.1054C13.4081 4.3884 13.5299 4.75368 13.5299 5.20123C13.5299 5.80016 13.3093 6.26416 12.8682 6.59324C12.4337 6.92232 11.7984 7.08686 10.9623 7.08686H7.80219V0.176177H10.7747C11.5318 0.176177 12.121 0.330845 12.5424 0.64018C12.9703 0.942934 13.1843 1.38061 13.1843 1.95321C13.1843 2.32836 13.0888 2.64757 12.8979 2.91083C12.7135 3.1741 12.4502 3.37155 12.1078 3.50318ZM8.77985 3.21688H10.7055C11.1861 3.21688 11.5515 3.12145 11.8017 2.93058C12.0585 2.73971 12.1868 2.45999 12.1868 2.09142C12.1868 1.72285 12.0585 1.44314 11.8017 1.25227C11.5449 1.05482 11.1796 0.956097 10.7055 0.956097H8.77985V3.21688ZM10.9426 6.30694C12.0025 6.30694 12.5325 5.91205 12.5325 5.12225C12.5325 4.72736 12.3975 4.43777 12.1276 4.25348C11.8643 4.06262 11.4692 3.96718 10.9426 3.96718H8.77985V6.30694H10.9426Z" fill="#333333"/>
<path d="M20.1964 6.22796V7.08686H15.1798V0.176177H20.0582V1.03508H16.1673V3.15764H19.6336V3.9968H16.1673V6.22796H20.1964Z" fill="#333333"/>
<path d="M27.396 0.176177V7.08686H26.4282V1.03508H23.3668L23.2977 3.05892C23.2648 4.01325 23.1858 4.78659 23.0607 5.37894C22.9422 5.97128 22.7513 6.41883 22.4879 6.72158C22.2246 7.01776 21.8691 7.16584 21.4214 7.16584C21.2173 7.16584 21.0099 7.13952 20.7992 7.08686L20.8684 6.20822C20.9737 6.23455 21.079 6.24771 21.1844 6.24771C21.4675 6.24771 21.6946 6.13582 21.8658 5.91205C22.0369 5.68169 22.1653 5.33945 22.2509 4.88532C22.3365 4.43119 22.3925 3.83226 22.4188 3.08854L22.5274 0.176177H27.396Z" fill="#333333"/>
<path d="M29.5492 0.176177H30.5268V5.50728L34.6152 0.176177H35.5238V7.08686H34.556V1.76564L30.4577 7.08686H29.5492V0.176177Z" fill="#333333"/>
<path d="M42.6015 0.176177V7.08686H41.6239V4.35221C40.8931 4.63522 40.2183 4.77672 39.5994 4.77672C38.7567 4.77672 38.1017 4.57269 37.6342 4.16463C37.1734 3.75657 36.943 3.1741 36.943 2.41721V0.176177H37.9107V2.30862C37.9107 2.82198 38.0655 3.21688 38.3749 3.49331C38.6909 3.76973 39.1353 3.90795 39.7081 3.90795C40.3467 3.90795 40.9853 3.76315 41.6239 3.47356V0.176177H42.6015Z" fill="#333333"/>
<path d="M49.7743 6.22796V7.08686H44.7576V0.176177H49.636V1.03508H45.7451V3.15764H49.2114V3.9968H45.7451V6.22796H49.7743Z" fill="#333333"/>
<path d="M57.2701 0.176177V7.08686H56.2825V4.00667H52.3126V7.08686H51.3251V0.176177H52.3126V3.14777H56.2825V0.176177H57.2701Z" fill="#333333"/>
<path d="M59.426 0.176177H60.4036V5.50728L64.492 0.176177H65.4005V7.08686H64.4328V1.76564L60.3345 7.08686H59.426V0.176177Z" fill="#333333"/>
<path d="M72.5724 6.22796V7.08686H67.5558V0.176177H72.4342V1.03508H68.5433V3.15764H72.0095V3.9968H68.5433V6.22796H72.5724Z" fill="#333333"/>
<path d="M82.7302 0.176177V7.08686H81.7624V1.03508H77.753V7.08686H76.7753V0.176177H82.7302Z" fill="#333333"/>
<path d="M87.5818 0.176177C88.4772 0.176177 89.1816 0.390079 89.6951 0.817884C90.2087 1.24569 90.4654 1.83474 90.4654 2.58504C90.4654 3.33535 90.2087 3.9244 89.6951 4.35221C89.1816 4.78001 88.4772 4.99391 87.5818 4.99391H85.8734V7.08686H84.8858V0.176177H87.5818ZM87.5522 4.13501C88.1776 4.13501 88.6549 4.00338 88.9841 3.74012C89.3133 3.47027 89.4779 3.08525 89.4779 2.58504C89.4779 2.08484 89.3133 1.70311 88.9841 1.43985C88.6549 1.17 88.1776 1.03508 87.5522 1.03508H85.8734V4.13501H87.5522Z" fill="#333333"/>
<path d="M95.0463 7.16584C94.3484 7.16584 93.7197 7.01446 93.1601 6.71171C92.6005 6.40238 92.1594 5.97786 91.8368 5.43817C91.5208 4.89848 91.3628 4.29626 91.3628 3.63152C91.3628 2.96678 91.5208 2.36456 91.8368 1.82487C92.1594 1.28518 92.6005 0.863955 93.1601 0.561201C93.7197 0.251866 94.3484 0.0971985 95.0463 0.0971985C95.7375 0.0971985 96.363 0.251866 96.9226 0.561201C97.4822 0.863955 97.92 1.28518 98.236 1.82487C98.552 2.35798 98.71 2.9602 98.71 3.63152C98.71 4.30284 98.552 4.90835 98.236 5.44804C97.92 5.98115 97.4822 6.40238 96.9226 6.71171C96.363 7.01446 95.7375 7.16584 95.0463 7.16584ZM95.0463 6.2872C95.5532 6.2872 96.0075 6.17202 96.4091 5.94166C96.8172 5.71131 97.1365 5.39539 97.367 4.99391C97.604 4.58585 97.7225 4.13172 97.7225 3.63152C97.7225 3.13132 97.604 2.68048 97.367 2.279C97.1365 1.87094 96.8172 1.55173 96.4091 1.32138C96.0075 1.09102 95.5532 0.975842 95.0463 0.975842C94.5393 0.975842 94.0785 1.09102 93.6637 1.32138C93.2555 1.55173 92.9329 1.87094 92.6959 2.279C92.4655 2.68048 92.3503 3.13132 92.3503 3.63152C92.3503 4.13172 92.4655 4.58585 92.6959 4.99391C92.9329 5.39539 93.2555 5.71131 93.6637 5.94166C94.0785 6.17202 94.5393 6.2872 95.0463 6.2872Z" fill="#333333"/>
<path d="M106.7 6.22796V8.59734H105.782V7.08686H100.094L100.084 8.59734H99.1655L99.1754 6.22796H99.5112C99.9457 6.20164 100.252 5.85939 100.43 5.20123C100.607 4.53649 100.716 3.6019 100.755 2.39747L100.825 0.176177H105.683V6.22796H106.7ZM101.624 2.48632C101.592 3.4604 101.513 4.26665 101.387 4.90506C101.269 5.54348 101.075 5.98444 100.805 6.22796H104.706V1.03508H101.674L101.624 2.48632Z" fill="#333333"/>
<path d="M112.573 5.35919H108.899L108.139 7.08686H107.122L110.252 0.176177H111.23L114.37 7.08686H113.333L112.573 5.35919ZM112.227 4.5694L110.736 1.18316L109.245 4.5694H112.227Z" fill="#333333"/>
<path d="M121.042 4.04616H119.728V7.08686H118.761V4.04616H117.437L115.502 7.08686H114.346L116.628 3.49331L114.514 0.176177H115.571L117.418 3.17739H118.761V0.176177H119.728V3.17739H121.052L122.908 0.176177H123.965L121.852 3.51305L124.133 7.08686H122.977L121.042 4.04616Z" fill="#333333"/>
</g>
</svg>
